<mxfile host="Electron" agent="Mozilla/5.0 (Windows NT 10.0; Win64; x64) AppleWebKit/537.36 (KHTML, like Gecko) draw.io/24.7.17 Chrome/128.0.6613.36 Electron/32.0.1 Safari/537.36" version="24.7.17" pages="4">
  <diagram id="acpaITVBSwvLbeJKgBje" name="Bête à corne">
    <mxGraphModel dx="1434" dy="884" grid="0" gridSize="10" guides="1" tooltips="1" connect="1" arrows="1" fold="1" page="1" pageScale="1" pageWidth="827" pageHeight="1169" background="none" math="0" shadow="0">
      <root>
        <mxCell id="0" />
        <mxCell id="1" parent="0" />
        <mxCell id="iq2KCQERHiibI6yTROlY-1" value="Station Météo" style="ellipse;whiteSpace=wrap;html=1;fillColor=#7EA6E0;" parent="1" vertex="1">
          <mxGeometry x="344" y="300" width="140" height="70" as="geometry" />
        </mxCell>
        <mxCell id="iq2KCQERHiibI6yTROlY-2" value="L&#39;Agence Internationale pour la Vigilance Météorologique (AIVM)" style="ellipse;whiteSpace=wrap;html=1;fillColor=#D4E1F5;" parent="1" vertex="1">
          <mxGeometry x="182" y="173" width="209" height="107" as="geometry" />
        </mxCell>
        <mxCell id="iq2KCQERHiibI6yTROlY-3" value="Les navires équipés de stations météo embarquées" style="ellipse;whiteSpace=wrap;html=1;fillColor=#D4E1F5;" parent="1" vertex="1">
          <mxGeometry x="451" y="183" width="191" height="87" as="geometry" />
        </mxCell>
        <mxCell id="iq2KCQERHiibI6yTROlY-4" value="Prévoir les catastrophes naturelles telles que les cyclones" style="ellipse;whiteSpace=wrap;html=1;fillColor=#D4E1F5;" parent="1" vertex="1">
          <mxGeometry x="313" y="433" width="202" height="84" as="geometry" />
        </mxCell>
        <mxCell id="iq2KCQERHiibI6yTROlY-9" value="" style="endArrow=none;html=1;rounded=0;exitX=0.5;exitY=0;exitDx=0;exitDy=0;entryX=0.5;entryY=1;entryDx=0;entryDy=0;" parent="1" source="iq2KCQERHiibI6yTROlY-4" target="iq2KCQERHiibI6yTROlY-1" edge="1">
          <mxGeometry width="50" height="50" relative="1" as="geometry">
            <mxPoint x="360" y="310" as="sourcePoint" />
            <mxPoint x="410" y="260" as="targetPoint" />
          </mxGeometry>
        </mxCell>
        <mxCell id="iq2KCQERHiibI6yTROlY-11" value="" style="endArrow=none;html=1;rounded=1;exitX=0.5;exitY=1;exitDx=0;exitDy=0;entryX=0.5;entryY=1;entryDx=0;entryDy=0;" parent="1" source="iq2KCQERHiibI6yTROlY-2" target="iq2KCQERHiibI6yTROlY-3" edge="1">
          <mxGeometry width="50" height="50" relative="1" as="geometry">
            <mxPoint x="360" y="310" as="sourcePoint" />
            <mxPoint x="410" y="260" as="targetPoint" />
            <Array as="points">
              <mxPoint x="410" y="310" />
              <mxPoint x="470" y="290" />
            </Array>
          </mxGeometry>
        </mxCell>
      </root>
    </mxGraphModel>
  </diagram>
  <diagram id="YP-TVfyfGYDZQVJCCuDc" name="DiagrammePieuvre">
    <mxGraphModel dx="989" dy="610" grid="0" gridSize="10" guides="1" tooltips="1" connect="1" arrows="1" fold="1" page="1" pageScale="1" pageWidth="827" pageHeight="1169" math="0" shadow="0">
      <root>
        <mxCell id="0" />
        <mxCell id="1" parent="0" />
        <mxCell id="cjimwys-_IMPRPUYsNKH-1" value="Station Météo" style="ellipse;whiteSpace=wrap;html=1;fillColor=#7EA6E0;" parent="1" vertex="1">
          <mxGeometry x="344" y="306" width="140" height="70" as="geometry" />
        </mxCell>
        <mxCell id="cjimwys-_IMPRPUYsNKH-2" value="Utilisateurs" style="ellipse;whiteSpace=wrap;html=1;fillColor=#D4E1F5;" parent="1" vertex="1">
          <mxGeometry x="309" y="180" width="138" height="75" as="geometry" />
        </mxCell>
        <mxCell id="cjimwys-_IMPRPUYsNKH-3" value="Prévoir" style="ellipse;whiteSpace=wrap;html=1;fillColor=#D4E1F5;" parent="1" vertex="1">
          <mxGeometry x="465" y="191" width="114" height="53" as="geometry" />
        </mxCell>
        <mxCell id="cjimwys-_IMPRPUYsNKH-4" value="Autonome" style="ellipse;whiteSpace=wrap;html=1;fillColor=#D4E1F5;" parent="1" vertex="1">
          <mxGeometry x="532" y="324" width="132" height="70" as="geometry" />
        </mxCell>
        <mxCell id="cjimwys-_IMPRPUYsNKH-5" value="" style="endArrow=none;html=1;rounded=0;exitX=0;exitY=0.5;exitDx=0;exitDy=0;entryX=1;entryY=0.5;entryDx=0;entryDy=0;" parent="1" source="cjimwys-_IMPRPUYsNKH-4" target="cjimwys-_IMPRPUYsNKH-1" edge="1">
          <mxGeometry width="50" height="50" relative="1" as="geometry">
            <mxPoint x="360" y="310" as="sourcePoint" />
            <mxPoint x="410" y="260" as="targetPoint" />
          </mxGeometry>
        </mxCell>
        <mxCell id="cjimwys-_IMPRPUYsNKH-6" value="" style="endArrow=none;html=1;rounded=1;exitX=0.5;exitY=1;exitDx=0;exitDy=0;entryX=0.318;entryY=0.972;entryDx=0;entryDy=0;entryPerimeter=0;" parent="1" source="cjimwys-_IMPRPUYsNKH-2" target="cjimwys-_IMPRPUYsNKH-3" edge="1">
          <mxGeometry width="50" height="50" relative="1" as="geometry">
            <mxPoint x="360" y="310" as="sourcePoint" />
            <mxPoint x="410" y="260" as="targetPoint" />
            <Array as="points">
              <mxPoint x="416" y="321" />
            </Array>
          </mxGeometry>
        </mxCell>
        <mxCell id="uL41HGDEH6zpVXajqI2N-1" value="FP1" style="text;html=1;align=center;verticalAlign=middle;whiteSpace=wrap;rounded=0;" vertex="1" parent="1">
          <mxGeometry x="426" y="247" width="60" height="30" as="geometry" />
        </mxCell>
        <mxCell id="uL41HGDEH6zpVXajqI2N-2" value="Simple" style="ellipse;whiteSpace=wrap;html=1;fillColor=#D4E1F5;" vertex="1" parent="1">
          <mxGeometry x="469" y="397" width="132" height="70" as="geometry" />
        </mxCell>
        <mxCell id="uL41HGDEH6zpVXajqI2N-3" value="Efficaces" style="ellipse;whiteSpace=wrap;html=1;fillColor=#D4E1F5;" vertex="1" parent="1">
          <mxGeometry x="337" y="424" width="132" height="70" as="geometry" />
        </mxCell>
        <mxCell id="uL41HGDEH6zpVXajqI2N-4" value="Pilotables" style="ellipse;whiteSpace=wrap;html=1;fillColor=#D4E1F5;" vertex="1" parent="1">
          <mxGeometry x="191" y="410" width="132" height="70" as="geometry" />
        </mxCell>
        <mxCell id="uL41HGDEH6zpVXajqI2N-5" value="Batteries" style="ellipse;whiteSpace=wrap;html=1;fillColor=#D4E1F5;" vertex="1" parent="1">
          <mxGeometry x="158" y="324" width="132" height="70" as="geometry" />
        </mxCell>
        <mxCell id="uL41HGDEH6zpVXajqI2N-6" value="" style="endArrow=none;html=1;rounded=0;exitX=0;exitY=0;exitDx=0;exitDy=0;entryX=1;entryY=1;entryDx=0;entryDy=0;" edge="1" parent="1" source="uL41HGDEH6zpVXajqI2N-2" target="cjimwys-_IMPRPUYsNKH-1">
          <mxGeometry width="50" height="50" relative="1" as="geometry">
            <mxPoint x="575" y="289" as="sourcePoint" />
            <mxPoint x="473" y="326" as="targetPoint" />
          </mxGeometry>
        </mxCell>
        <mxCell id="uL41HGDEH6zpVXajqI2N-7" value="" style="endArrow=none;html=1;rounded=0;exitX=0.5;exitY=0;exitDx=0;exitDy=0;entryX=0.5;entryY=1;entryDx=0;entryDy=0;" edge="1" parent="1" source="uL41HGDEH6zpVXajqI2N-3" target="cjimwys-_IMPRPUYsNKH-1">
          <mxGeometry width="50" height="50" relative="1" as="geometry">
            <mxPoint x="585" y="299" as="sourcePoint" />
            <mxPoint x="483" y="336" as="targetPoint" />
          </mxGeometry>
        </mxCell>
        <mxCell id="uL41HGDEH6zpVXajqI2N-8" value="" style="endArrow=none;html=1;rounded=0;exitX=1;exitY=0;exitDx=0;exitDy=0;entryX=0;entryY=1;entryDx=0;entryDy=0;" edge="1" parent="1" source="uL41HGDEH6zpVXajqI2N-4" target="cjimwys-_IMPRPUYsNKH-1">
          <mxGeometry width="50" height="50" relative="1" as="geometry">
            <mxPoint x="595" y="309" as="sourcePoint" />
            <mxPoint x="493" y="346" as="targetPoint" />
          </mxGeometry>
        </mxCell>
        <mxCell id="uL41HGDEH6zpVXajqI2N-10" value="" style="endArrow=none;html=1;rounded=0;exitX=1;exitY=0.5;exitDx=0;exitDy=0;entryX=0;entryY=0.5;entryDx=0;entryDy=0;" edge="1" parent="1" source="uL41HGDEH6zpVXajqI2N-5" target="cjimwys-_IMPRPUYsNKH-1">
          <mxGeometry width="50" height="50" relative="1" as="geometry">
            <mxPoint x="605" y="319" as="sourcePoint" />
            <mxPoint x="503" y="356" as="targetPoint" />
          </mxGeometry>
        </mxCell>
        <mxCell id="uL41HGDEH6zpVXajqI2N-11" value="Enregistrement" style="ellipse;whiteSpace=wrap;html=1;fillColor=#D4E1F5;" vertex="1" parent="1">
          <mxGeometry x="166" y="231" width="132" height="70" as="geometry" />
        </mxCell>
        <mxCell id="uL41HGDEH6zpVXajqI2N-12" value="" style="endArrow=none;html=1;rounded=0;exitX=1;exitY=0.5;exitDx=0;exitDy=0;entryX=0;entryY=0;entryDx=0;entryDy=0;" edge="1" parent="1" source="uL41HGDEH6zpVXajqI2N-11" target="cjimwys-_IMPRPUYsNKH-1">
          <mxGeometry width="50" height="50" relative="1" as="geometry">
            <mxPoint x="329" y="416" as="sourcePoint" />
            <mxPoint x="375" y="376" as="targetPoint" />
          </mxGeometry>
        </mxCell>
        <mxCell id="uL41HGDEH6zpVXajqI2N-13" value="C1" style="text;html=1;align=center;verticalAlign=middle;whiteSpace=wrap;rounded=0;" vertex="1" parent="1">
          <mxGeometry x="492" y="324" width="60" height="30" as="geometry" />
        </mxCell>
        <mxCell id="uL41HGDEH6zpVXajqI2N-14" value="C2" style="text;html=1;align=center;verticalAlign=middle;whiteSpace=wrap;rounded=0;" vertex="1" parent="1">
          <mxGeometry x="438" y="383" width="60" height="30" as="geometry" />
        </mxCell>
        <mxCell id="uL41HGDEH6zpVXajqI2N-15" value="C3" style="text;html=1;align=center;verticalAlign=middle;whiteSpace=wrap;rounded=0;" vertex="1" parent="1">
          <mxGeometry x="366" y="394" width="60" height="30" as="geometry" />
        </mxCell>
        <mxCell id="uL41HGDEH6zpVXajqI2N-16" value="C4" style="text;html=1;align=center;verticalAlign=middle;whiteSpace=wrap;rounded=0;" vertex="1" parent="1">
          <mxGeometry x="277" y="380" width="60" height="30" as="geometry" />
        </mxCell>
        <mxCell id="uL41HGDEH6zpVXajqI2N-18" value="C5" style="text;html=1;align=center;verticalAlign=middle;whiteSpace=wrap;rounded=0;" vertex="1" parent="1">
          <mxGeometry x="277" y="330" width="60" height="30" as="geometry" />
        </mxCell>
        <mxCell id="uL41HGDEH6zpVXajqI2N-19" value="C6" style="text;html=1;align=center;verticalAlign=middle;whiteSpace=wrap;rounded=0;" vertex="1" parent="1">
          <mxGeometry x="284" y="281" width="60" height="30" as="geometry" />
        </mxCell>
        <mxCell id="uL41HGDEH6zpVXajqI2N-21" value="Relever" style="ellipse;whiteSpace=wrap;html=1;fillColor=#D4E1F5;" vertex="1" parent="1">
          <mxGeometry x="540.5" y="254" width="115" height="52" as="geometry" />
        </mxCell>
        <mxCell id="uL41HGDEH6zpVXajqI2N-22" value="" style="endArrow=none;html=1;rounded=1;exitX=0.318;exitY=0.964;exitDx=0;exitDy=0;entryX=0;entryY=1;entryDx=0;entryDy=0;exitPerimeter=0;" edge="1" parent="1" source="cjimwys-_IMPRPUYsNKH-3" target="uL41HGDEH6zpVXajqI2N-21">
          <mxGeometry width="50" height="50" relative="1" as="geometry">
            <mxPoint x="388" y="265" as="sourcePoint" />
            <mxPoint x="553" y="241" as="targetPoint" />
            <Array as="points">
              <mxPoint x="447" y="320" />
            </Array>
          </mxGeometry>
        </mxCell>
        <mxCell id="uL41HGDEH6zpVXajqI2N-23" value="FP2" style="text;html=1;align=center;verticalAlign=middle;whiteSpace=wrap;rounded=0;" vertex="1" parent="1">
          <mxGeometry x="485" y="279" width="60" height="30" as="geometry" />
        </mxCell>
      </root>
    </mxGraphModel>
  </diagram>
  <diagram id="5AmxRgzQs6I8pw3dvxk0" name="DiagrammeUseCase">
    <mxGraphModel dx="1434" dy="884" grid="0" gridSize="10" guides="1" tooltips="1" connect="1" arrows="1" fold="1" page="1" pageScale="1" pageWidth="827" pageHeight="1169" math="0" shadow="0">
      <root>
        <mxCell id="0" />
        <mxCell id="1" parent="0" />
        <mxCell id="LAXeSL8dw2vho6VuoXwJ-22" value="Station Météo" style="html=1;whiteSpace=wrap;align=center;" parent="1" vertex="1">
          <mxGeometry x="266" y="51" width="302" height="641" as="geometry" />
        </mxCell>
        <mxCell id="LAXeSL8dw2vho6VuoXwJ-1" value="Users" style="shape=umlActor;verticalLabelPosition=bottom;verticalAlign=top;html=1;outlineConnect=0;" parent="1" vertex="1">
          <mxGeometry x="192" y="184" width="30" height="60" as="geometry" />
        </mxCell>
        <mxCell id="LAXeSL8dw2vho6VuoXwJ-2" value="Arduino" style="shape=umlActor;verticalLabelPosition=bottom;verticalAlign=top;html=1;outlineConnect=0;" parent="1" vertex="1">
          <mxGeometry x="624" y="291" width="30" height="60" as="geometry" />
        </mxCell>
        <mxCell id="LAXeSL8dw2vho6VuoXwJ-3" value="Capteurs" style="shape=umlActor;verticalLabelPosition=bottom;verticalAlign=top;html=1;outlineConnect=0;" parent="1" vertex="1">
          <mxGeometry x="605" y="590" width="30" height="60" as="geometry" />
        </mxCell>
        <mxCell id="LAXeSL8dw2vho6VuoXwJ-5" value="Configurer la station méteo" style="ellipse;whiteSpace=wrap;html=1;fillColor=#D4E1F5;" parent="1" vertex="1">
          <mxGeometry x="344" y="94" width="140" height="70" as="geometry" />
        </mxCell>
        <mxCell id="LAXeSL8dw2vho6VuoXwJ-6" value="Lire les données" style="ellipse;whiteSpace=wrap;html=1;fillColor=#D4E1F5;" parent="1" vertex="1">
          <mxGeometry x="347" y="184" width="140" height="70" as="geometry" />
        </mxCell>
        <mxCell id="LAXeSL8dw2vho6VuoXwJ-7" value="Gérer les données" style="ellipse;whiteSpace=wrap;html=1;fillColor=#D4E1F5;" parent="1" vertex="1">
          <mxGeometry x="344" y="272" width="140" height="70" as="geometry" />
        </mxCell>
        <mxCell id="LAXeSL8dw2vho6VuoXwJ-8" value="Enregistrer des données" style="ellipse;whiteSpace=wrap;html=1;fillColor=#D4E1F5;" parent="1" vertex="1">
          <mxGeometry x="344" y="359" width="140" height="70" as="geometry" />
        </mxCell>
        <mxCell id="LAXeSL8dw2vho6VuoXwJ-9" value="Mettre en forme des données" style="ellipse;whiteSpace=wrap;html=1;fillColor=#D4E1F5;" parent="1" vertex="1">
          <mxGeometry x="344" y="453" width="140" height="70" as="geometry" />
        </mxCell>
        <mxCell id="LAXeSL8dw2vho6VuoXwJ-10" value="Relever des données" style="ellipse;whiteSpace=wrap;html=1;fillColor=#D4E1F5;" parent="1" vertex="1">
          <mxGeometry x="344" y="585" width="140" height="70" as="geometry" />
        </mxCell>
        <mxCell id="LAXeSL8dw2vho6VuoXwJ-13" value="" style="endArrow=open;endFill=1;endSize=12;html=1;rounded=0;entryX=0;entryY=0.5;entryDx=0;entryDy=0;" parent="1" source="LAXeSL8dw2vho6VuoXwJ-1" target="LAXeSL8dw2vho6VuoXwJ-5" edge="1">
          <mxGeometry width="160" relative="1" as="geometry">
            <mxPoint x="295" y="361" as="sourcePoint" />
            <mxPoint x="455" y="361" as="targetPoint" />
          </mxGeometry>
        </mxCell>
        <mxCell id="LAXeSL8dw2vho6VuoXwJ-14" value="" style="endArrow=open;endFill=1;endSize=12;html=1;rounded=0;entryX=0;entryY=0.5;entryDx=0;entryDy=0;" parent="1" source="LAXeSL8dw2vho6VuoXwJ-1" target="LAXeSL8dw2vho6VuoXwJ-6" edge="1">
          <mxGeometry width="160" relative="1" as="geometry">
            <mxPoint x="222" y="299" as="sourcePoint" />
            <mxPoint x="354" y="139" as="targetPoint" />
          </mxGeometry>
        </mxCell>
        <mxCell id="LAXeSL8dw2vho6VuoXwJ-15" value="" style="endArrow=open;endFill=1;endSize=12;html=1;rounded=0;entryX=0;entryY=0.5;entryDx=0;entryDy=0;" parent="1" source="LAXeSL8dw2vho6VuoXwJ-1" target="LAXeSL8dw2vho6VuoXwJ-7" edge="1">
          <mxGeometry width="160" relative="1" as="geometry">
            <mxPoint x="241" y="320" as="sourcePoint" />
            <mxPoint x="364" y="149" as="targetPoint" />
          </mxGeometry>
        </mxCell>
        <mxCell id="LAXeSL8dw2vho6VuoXwJ-16" value="" style="endArrow=open;endFill=1;endSize=12;html=1;rounded=0;entryX=1;entryY=0.5;entryDx=0;entryDy=0;" parent="1" source="LAXeSL8dw2vho6VuoXwJ-2" target="LAXeSL8dw2vho6VuoXwJ-6" edge="1">
          <mxGeometry width="160" relative="1" as="geometry">
            <mxPoint x="460" y="347" as="sourcePoint" />
            <mxPoint x="583" y="335" as="targetPoint" />
          </mxGeometry>
        </mxCell>
        <mxCell id="LAXeSL8dw2vho6VuoXwJ-17" value="" style="endArrow=open;endFill=1;endSize=12;html=1;rounded=0;entryX=1;entryY=0.5;entryDx=0;entryDy=0;" parent="1" source="LAXeSL8dw2vho6VuoXwJ-2" target="LAXeSL8dw2vho6VuoXwJ-7" edge="1">
          <mxGeometry width="160" relative="1" as="geometry">
            <mxPoint x="612" y="288" as="sourcePoint" />
            <mxPoint x="497" y="229" as="targetPoint" />
          </mxGeometry>
        </mxCell>
        <mxCell id="LAXeSL8dw2vho6VuoXwJ-18" value="" style="endArrow=open;endFill=1;endSize=12;html=1;rounded=0;entryX=1;entryY=0.5;entryDx=0;entryDy=0;" parent="1" source="LAXeSL8dw2vho6VuoXwJ-2" target="LAXeSL8dw2vho6VuoXwJ-8" edge="1">
          <mxGeometry width="160" relative="1" as="geometry">
            <mxPoint x="612" y="298" as="sourcePoint" />
            <mxPoint x="494" y="317" as="targetPoint" />
          </mxGeometry>
        </mxCell>
        <mxCell id="LAXeSL8dw2vho6VuoXwJ-19" value="" style="endArrow=open;endFill=1;endSize=12;html=1;rounded=0;entryX=1;entryY=0.5;entryDx=0;entryDy=0;" parent="1" source="LAXeSL8dw2vho6VuoXwJ-2" target="LAXeSL8dw2vho6VuoXwJ-9" edge="1">
          <mxGeometry width="160" relative="1" as="geometry">
            <mxPoint x="612" y="308" as="sourcePoint" />
            <mxPoint x="494" y="404" as="targetPoint" />
          </mxGeometry>
        </mxCell>
        <mxCell id="LAXeSL8dw2vho6VuoXwJ-20" value="" style="endArrow=open;endFill=1;endSize=12;html=1;rounded=0;entryX=1;entryY=0.5;entryDx=0;entryDy=0;" parent="1" source="LAXeSL8dw2vho6VuoXwJ-3" target="LAXeSL8dw2vho6VuoXwJ-10" edge="1">
          <mxGeometry width="160" relative="1" as="geometry">
            <mxPoint x="612" y="319" as="sourcePoint" />
            <mxPoint x="494" y="498" as="targetPoint" />
          </mxGeometry>
        </mxCell>
        <mxCell id="LAXeSL8dw2vho6VuoXwJ-21" value="&amp;lt;&amp;lt;Include&amp;gt;&amp;gt;" style="html=1;verticalAlign=bottom;endArrow=open;dashed=1;endSize=8;edgeStyle=elbowEdgeStyle;elbow=vertical;curved=0;rounded=0;entryX=0.5;entryY=1;entryDx=0;entryDy=0;exitX=0.5;exitY=0;exitDx=0;exitDy=0;" parent="1" source="LAXeSL8dw2vho6VuoXwJ-10" target="LAXeSL8dw2vho6VuoXwJ-9" edge="1">
          <mxGeometry x="0.0011" relative="1" as="geometry">
            <mxPoint x="518" y="620" as="sourcePoint" />
            <mxPoint x="438" y="620" as="targetPoint" />
            <mxPoint as="offset" />
          </mxGeometry>
        </mxCell>
        <mxCell id="LAXeSL8dw2vho6VuoXwJ-23" value="Station météo" style="text;align=center;fontStyle=1;verticalAlign=middle;spacingLeft=3;spacingRight=3;strokeColor=none;rotatable=0;points=[[0,0.5],[1,0.5]];portConstraint=eastwest;html=1;" parent="1" vertex="1">
          <mxGeometry x="374" y="56" width="80" height="26" as="geometry" />
        </mxCell>
      </root>
    </mxGraphModel>
  </diagram>
  <diagram name="DiagrammeSéquence" id="2YBvvXClWsGukQMizWep">
    <mxGraphModel dx="1456" dy="2969" grid="0" gridSize="10" guides="1" tooltips="1" connect="1" arrows="1" fold="1" page="1" pageScale="1" pageWidth="850" pageHeight="1100" math="0" shadow="0">
      <root>
        <mxCell id="0" />
        <mxCell id="1" parent="0" />
        <mxCell id="aM9ryv3xv72pqoxQDRHE-1" value=":User" style="shape=umlLifeline;perimeter=lifelinePerimeter;whiteSpace=wrap;html=1;container=0;dropTarget=0;collapsible=0;recursiveResize=0;outlineConnect=0;portConstraint=eastwest;newEdgeStyle={&quot;edgeStyle&quot;:&quot;elbowEdgeStyle&quot;,&quot;elbow&quot;:&quot;vertical&quot;,&quot;curved&quot;:0,&quot;rounded&quot;:0};" parent="1" vertex="1">
          <mxGeometry x="40" y="40" width="100" height="400" as="geometry" />
        </mxCell>
        <mxCell id="aM9ryv3xv72pqoxQDRHE-2" value="" style="html=1;points=[];perimeter=orthogonalPerimeter;outlineConnect=0;targetShapes=umlLifeline;portConstraint=eastwest;newEdgeStyle={&quot;edgeStyle&quot;:&quot;elbowEdgeStyle&quot;,&quot;elbow&quot;:&quot;vertical&quot;,&quot;curved&quot;:0,&quot;rounded&quot;:0};" parent="aM9ryv3xv72pqoxQDRHE-1" vertex="1">
          <mxGeometry x="45" y="70" width="10" height="290" as="geometry" />
        </mxCell>
        <mxCell id="aM9ryv3xv72pqoxQDRHE-5" value=":Système Embarqué" style="shape=umlLifeline;perimeter=lifelinePerimeter;whiteSpace=wrap;html=1;container=0;dropTarget=0;collapsible=0;recursiveResize=0;outlineConnect=0;portConstraint=eastwest;newEdgeStyle={&quot;edgeStyle&quot;:&quot;elbowEdgeStyle&quot;,&quot;elbow&quot;:&quot;vertical&quot;,&quot;curved&quot;:0,&quot;rounded&quot;:0};" parent="1" vertex="1">
          <mxGeometry x="320" y="40" width="100" height="400" as="geometry" />
        </mxCell>
        <mxCell id="aM9ryv3xv72pqoxQDRHE-6" value="" style="html=1;points=[];perimeter=orthogonalPerimeter;outlineConnect=0;targetShapes=umlLifeline;portConstraint=eastwest;newEdgeStyle={&quot;edgeStyle&quot;:&quot;elbowEdgeStyle&quot;,&quot;elbow&quot;:&quot;vertical&quot;,&quot;curved&quot;:0,&quot;rounded&quot;:0};" parent="aM9ryv3xv72pqoxQDRHE-5" vertex="1">
          <mxGeometry x="45" y="80" width="10" height="280" as="geometry" />
        </mxCell>
        <mxCell id="PBNyYcrHbgmyHmzmt3Bi-18" value="" style="endArrow=classic;html=1;rounded=0;" parent="aM9ryv3xv72pqoxQDRHE-5" edge="1">
          <mxGeometry width="50" height="50" relative="1" as="geometry">
            <mxPoint x="55" y="229" as="sourcePoint" />
            <mxPoint x="55" y="249" as="targetPoint" />
            <Array as="points">
              <mxPoint x="80" y="229" />
              <mxPoint x="80" y="249" />
            </Array>
          </mxGeometry>
        </mxCell>
        <mxCell id="aM9ryv3xv72pqoxQDRHE-9" value="on()" style="html=1;verticalAlign=bottom;endArrow=block;edgeStyle=elbowEdgeStyle;elbow=vertical;curved=0;rounded=0;" parent="1" source="aM9ryv3xv72pqoxQDRHE-6" target="PBNyYcrHbgmyHmzmt3Bi-6" edge="1">
          <mxGeometry relative="1" as="geometry">
            <mxPoint x="175" y="160" as="sourcePoint" />
            <Array as="points">
              <mxPoint x="310" y="170" />
            </Array>
            <mxPoint x="230" y="160" as="targetPoint" />
          </mxGeometry>
        </mxCell>
        <mxCell id="PBNyYcrHbgmyHmzmt3Bi-1" value=":CarteSD" style="shape=umlLifeline;perimeter=lifelinePerimeter;whiteSpace=wrap;html=1;container=0;dropTarget=0;collapsible=0;recursiveResize=0;outlineConnect=0;portConstraint=eastwest;newEdgeStyle={&quot;edgeStyle&quot;:&quot;elbowEdgeStyle&quot;,&quot;elbow&quot;:&quot;vertical&quot;,&quot;curved&quot;:0,&quot;rounded&quot;:0};" parent="1" vertex="1">
          <mxGeometry x="460" y="40" width="100" height="400" as="geometry" />
        </mxCell>
        <mxCell id="PBNyYcrHbgmyHmzmt3Bi-2" value="" style="html=1;points=[];perimeter=orthogonalPerimeter;outlineConnect=0;targetShapes=umlLifeline;portConstraint=eastwest;newEdgeStyle={&quot;edgeStyle&quot;:&quot;elbowEdgeStyle&quot;,&quot;elbow&quot;:&quot;vertical&quot;,&quot;curved&quot;:0,&quot;rounded&quot;:0};" parent="PBNyYcrHbgmyHmzmt3Bi-1" vertex="1">
          <mxGeometry x="45" y="80" width="10" height="280" as="geometry" />
        </mxCell>
        <mxCell id="PBNyYcrHbgmyHmzmt3Bi-3" value=":Capteurs" style="shape=umlLifeline;perimeter=lifelinePerimeter;whiteSpace=wrap;html=1;container=0;dropTarget=0;collapsible=0;recursiveResize=0;outlineConnect=0;portConstraint=eastwest;newEdgeStyle={&quot;edgeStyle&quot;:&quot;elbowEdgeStyle&quot;,&quot;elbow&quot;:&quot;vertical&quot;,&quot;curved&quot;:0,&quot;rounded&quot;:0};" parent="1" vertex="1">
          <mxGeometry x="600" y="40" width="100" height="400" as="geometry" />
        </mxCell>
        <mxCell id="PBNyYcrHbgmyHmzmt3Bi-4" value="" style="html=1;points=[];perimeter=orthogonalPerimeter;outlineConnect=0;targetShapes=umlLifeline;portConstraint=eastwest;newEdgeStyle={&quot;edgeStyle&quot;:&quot;elbowEdgeStyle&quot;,&quot;elbow&quot;:&quot;vertical&quot;,&quot;curved&quot;:0,&quot;rounded&quot;:0};" parent="PBNyYcrHbgmyHmzmt3Bi-3" vertex="1">
          <mxGeometry x="45" y="80" width="10" height="280" as="geometry" />
        </mxCell>
        <mxCell id="PBNyYcrHbgmyHmzmt3Bi-5" value=":LEDS" style="shape=umlLifeline;perimeter=lifelinePerimeter;whiteSpace=wrap;html=1;container=0;dropTarget=0;collapsible=0;recursiveResize=0;outlineConnect=0;portConstraint=eastwest;newEdgeStyle={&quot;edgeStyle&quot;:&quot;elbowEdgeStyle&quot;,&quot;elbow&quot;:&quot;vertical&quot;,&quot;curved&quot;:0,&quot;rounded&quot;:0};" parent="1" vertex="1">
          <mxGeometry x="180" y="40" width="100" height="400" as="geometry" />
        </mxCell>
        <mxCell id="PBNyYcrHbgmyHmzmt3Bi-6" value="" style="html=1;points=[];perimeter=orthogonalPerimeter;outlineConnect=0;targetShapes=umlLifeline;portConstraint=eastwest;newEdgeStyle={&quot;edgeStyle&quot;:&quot;elbowEdgeStyle&quot;,&quot;elbow&quot;:&quot;vertical&quot;,&quot;curved&quot;:0,&quot;rounded&quot;:0};" parent="PBNyYcrHbgmyHmzmt3Bi-5" vertex="1">
          <mxGeometry x="45" y="60" width="10" height="300" as="geometry" />
        </mxCell>
        <mxCell id="PBNyYcrHbgmyHmzmt3Bi-7" value="" style="endArrow=classic;html=1;rounded=0;" parent="PBNyYcrHbgmyHmzmt3Bi-5" source="PBNyYcrHbgmyHmzmt3Bi-6" target="PBNyYcrHbgmyHmzmt3Bi-6" edge="1">
          <mxGeometry width="50" height="50" relative="1" as="geometry">
            <mxPoint x="40" y="140" as="sourcePoint" />
            <mxPoint x="10" y="110" as="targetPoint" />
            <Array as="points">
              <mxPoint x="30" y="140" />
              <mxPoint x="30" y="150" />
              <mxPoint x="40" y="150" />
            </Array>
          </mxGeometry>
        </mxCell>
        <mxCell id="PBNyYcrHbgmyHmzmt3Bi-8" value="&lt;font style=&quot;font-size: 11px;&quot;&gt;LED jaune continue&lt;/font&gt;" style="text;html=1;strokeColor=none;fillColor=none;align=center;verticalAlign=middle;whiteSpace=wrap;rounded=0;" parent="1" vertex="1">
          <mxGeometry x="150" y="170" width="60" height="30" as="geometry" />
        </mxCell>
        <mxCell id="PBNyYcrHbgmyHmzmt3Bi-14" value="" style="endArrow=classic;html=1;rounded=0;" parent="1" source="aM9ryv3xv72pqoxQDRHE-2" target="aM9ryv3xv72pqoxQDRHE-6" edge="1">
          <mxGeometry width="50" height="50" relative="1" as="geometry">
            <mxPoint x="450" y="220" as="sourcePoint" />
            <mxPoint x="500" y="170" as="targetPoint" />
            <Array as="points">
              <mxPoint x="240" y="140" />
            </Array>
          </mxGeometry>
        </mxCell>
        <mxCell id="PBNyYcrHbgmyHmzmt3Bi-15" value="&lt;font style=&quot;font-size: 11px;&quot;&gt;Bouton rouge pressé&lt;/font&gt;" style="text;html=1;strokeColor=none;fillColor=#FFFFFF;align=center;verticalAlign=middle;whiteSpace=wrap;rounded=0;" parent="1" vertex="1">
          <mxGeometry x="110" y="110" width="120" height="20" as="geometry" />
        </mxCell>
        <mxCell id="PBNyYcrHbgmyHmzmt3Bi-16" value="" style="endArrow=classic;html=1;rounded=0;" parent="1" edge="1">
          <mxGeometry width="50" height="50" relative="1" as="geometry">
            <mxPoint x="375" y="239" as="sourcePoint" />
            <mxPoint x="645" y="239" as="targetPoint" />
            <Array as="points">
              <mxPoint x="520" y="239" />
            </Array>
          </mxGeometry>
        </mxCell>
        <mxCell id="PBNyYcrHbgmyHmzmt3Bi-17" value="&lt;font style=&quot;font-size: 11px;&quot;&gt;Désactivation des capteurs&lt;/font&gt;" style="text;html=1;strokeColor=none;fillColor=#FFFFFF;align=center;verticalAlign=middle;whiteSpace=wrap;rounded=0;" parent="1" vertex="1">
          <mxGeometry x="390" y="214" width="140" height="20" as="geometry" />
        </mxCell>
        <mxCell id="PBNyYcrHbgmyHmzmt3Bi-19" value="&lt;font style=&quot;font-size: 11px;&quot;&gt;Activation de la console&lt;/font&gt;" style="text;html=1;strokeColor=none;fillColor=#FFFFFF;align=center;verticalAlign=middle;whiteSpace=wrap;rounded=0;" parent="1" vertex="1">
          <mxGeometry x="405" y="249" width="90" height="30" as="geometry" />
        </mxCell>
        <mxCell id="PqbKVcHNpB7VHF7bH20k-1" value="" style="endArrow=classic;html=1;rounded=0;" parent="1" edge="1">
          <mxGeometry width="50" height="50" relative="1" as="geometry">
            <mxPoint x="95" y="353" as="sourcePoint" />
            <mxPoint x="365" y="353" as="targetPoint" />
            <Array as="points">
              <mxPoint x="240" y="353" />
            </Array>
          </mxGeometry>
        </mxCell>
        <mxCell id="PqbKVcHNpB7VHF7bH20k-2" value="&lt;font style=&quot;font-size: 11px;&quot;&gt;Tape &amp;lt;nom_commande&amp;gt;&lt;/font&gt;" style="text;html=1;strokeColor=none;fillColor=#FFFFFF;align=center;verticalAlign=middle;whiteSpace=wrap;rounded=0;" parent="1" vertex="1">
          <mxGeometry x="110" y="313" width="90" height="30" as="geometry" />
        </mxCell>
        <mxCell id="PqbKVcHNpB7VHF7bH20k-6" value="" style="endArrow=classic;html=1;rounded=0;" parent="1" edge="1">
          <mxGeometry width="50" height="50" relative="1" as="geometry">
            <mxPoint x="375" y="366" as="sourcePoint" />
            <mxPoint x="375" y="386" as="targetPoint" />
            <Array as="points">
              <mxPoint x="400" y="366" />
              <mxPoint x="400" y="386" />
            </Array>
          </mxGeometry>
        </mxCell>
        <mxCell id="PqbKVcHNpB7VHF7bH20k-8" value="&lt;font style=&quot;font-size: 11px;&quot;&gt;change configuration&lt;/font&gt;" style="text;html=1;strokeColor=none;fillColor=#FFFFFF;align=center;verticalAlign=middle;whiteSpace=wrap;rounded=0;" parent="1" vertex="1">
          <mxGeometry x="380" y="329" width="80" height="30" as="geometry" />
        </mxCell>
        <mxCell id="3W6cLobdpar6e06Hajnf-1" value="" style="endArrow=classic;html=1;rounded=0;" parent="1" target="PBNyYcrHbgmyHmzmt3Bi-2" edge="1">
          <mxGeometry width="50" height="50" relative="1" as="geometry">
            <mxPoint x="375" y="195" as="sourcePoint" />
            <mxPoint x="504" y="196" as="targetPoint" />
            <Array as="points" />
          </mxGeometry>
        </mxCell>
        <mxCell id="3W6cLobdpar6e06Hajnf-4" value="&lt;font style=&quot;font-size: 11px;&quot;&gt;Arrêt des enregistrements&lt;/font&gt;" style="text;html=1;strokeColor=none;fillColor=#FFFFFF;align=center;verticalAlign=middle;whiteSpace=wrap;rounded=0;" parent="1" vertex="1">
          <mxGeometry x="380" y="170" width="140" height="20" as="geometry" />
        </mxCell>
        <mxCell id="ToAw_z9-mC3ADOfd5gEH-1" value=":Système Embarqué" style="shape=umlLifeline;perimeter=lifelinePerimeter;whiteSpace=wrap;html=1;container=0;dropTarget=0;collapsible=0;recursiveResize=0;outlineConnect=0;portConstraint=eastwest;newEdgeStyle={&quot;edgeStyle&quot;:&quot;elbowEdgeStyle&quot;,&quot;elbow&quot;:&quot;vertical&quot;,&quot;curved&quot;:0,&quot;rounded&quot;:0};" parent="1" vertex="1">
          <mxGeometry x="1028" y="40" width="100" height="563" as="geometry" />
        </mxCell>
        <mxCell id="ToAw_z9-mC3ADOfd5gEH-30" value="" style="html=1;points=[];perimeter=orthogonalPerimeter;outlineConnect=0;targetShapes=umlLifeline;portConstraint=eastwest;newEdgeStyle={&quot;edgeStyle&quot;:&quot;elbowEdgeStyle&quot;,&quot;elbow&quot;:&quot;vertical&quot;,&quot;curved&quot;:0,&quot;rounded&quot;:0};" parent="ToAw_z9-mC3ADOfd5gEH-1" vertex="1">
          <mxGeometry x="45" y="70" width="10" height="448" as="geometry" />
        </mxCell>
        <mxCell id="ToAw_z9-mC3ADOfd5gEH-2" value=":LEDS" style="shape=umlLifeline;perimeter=lifelinePerimeter;whiteSpace=wrap;html=1;container=0;dropTarget=0;collapsible=0;recursiveResize=0;outlineConnect=0;portConstraint=eastwest;newEdgeStyle={&quot;edgeStyle&quot;:&quot;elbowEdgeStyle&quot;,&quot;elbow&quot;:&quot;vertical&quot;,&quot;curved&quot;:0,&quot;rounded&quot;:0};" parent="1" vertex="1">
          <mxGeometry x="1539" y="40" width="101" height="567" as="geometry" />
        </mxCell>
        <mxCell id="ToAw_z9-mC3ADOfd5gEH-32" value="" style="html=1;points=[];perimeter=orthogonalPerimeter;outlineConnect=0;targetShapes=umlLifeline;portConstraint=eastwest;newEdgeStyle={&quot;edgeStyle&quot;:&quot;elbowEdgeStyle&quot;,&quot;elbow&quot;:&quot;vertical&quot;,&quot;curved&quot;:0,&quot;rounded&quot;:0};" parent="ToAw_z9-mC3ADOfd5gEH-2" vertex="1">
          <mxGeometry x="45.5" y="70" width="10" height="458" as="geometry" />
        </mxCell>
        <mxCell id="ToAw_z9-mC3ADOfd5gEH-3" value="" style="endArrow=classic;html=1;rounded=0;" parent="1" target="ToAw_z9-mC3ADOfd5gEH-32" edge="1">
          <mxGeometry width="50" height="50" relative="1" as="geometry">
            <mxPoint x="1083" y="183" as="sourcePoint" />
            <mxPoint x="1589" y="183" as="targetPoint" />
          </mxGeometry>
        </mxCell>
        <mxCell id="ToAw_z9-mC3ADOfd5gEH-6" value="" style="endArrow=classic;html=1;rounded=0;" parent="1" edge="1">
          <mxGeometry width="50" height="50" relative="1" as="geometry">
            <mxPoint x="1083" y="251" as="sourcePoint" />
            <mxPoint x="1584.5" y="251" as="targetPoint" />
          </mxGeometry>
        </mxCell>
        <mxCell id="ToAw_z9-mC3ADOfd5gEH-8" value="" style="endArrow=classic;html=1;rounded=0;" parent="1" edge="1">
          <mxGeometry width="50" height="50" relative="1" as="geometry">
            <mxPoint x="1083" y="310" as="sourcePoint" />
            <mxPoint x="1584.5000000000002" y="310" as="targetPoint" />
          </mxGeometry>
        </mxCell>
        <mxCell id="ToAw_z9-mC3ADOfd5gEH-10" value="" style="endArrow=classic;html=1;rounded=0;" parent="1" edge="1">
          <mxGeometry width="50" height="50" relative="1" as="geometry">
            <mxPoint x="1083" y="366" as="sourcePoint" />
            <mxPoint x="1584.5" y="366" as="targetPoint" />
          </mxGeometry>
        </mxCell>
        <mxCell id="ToAw_z9-mC3ADOfd5gEH-12" value="" style="endArrow=classic;html=1;rounded=0;" parent="1" edge="1">
          <mxGeometry width="50" height="50" relative="1" as="geometry">
            <mxPoint x="1083" y="433" as="sourcePoint" />
            <mxPoint x="1584.5" y="433" as="targetPoint" />
          </mxGeometry>
        </mxCell>
        <mxCell id="ToAw_z9-mC3ADOfd5gEH-14" value="" style="endArrow=classic;html=1;rounded=0;" parent="1" edge="1">
          <mxGeometry width="50" height="50" relative="1" as="geometry">
            <mxPoint x="1083.0000000000002" y="495" as="sourcePoint" />
            <mxPoint x="1584.5" y="495" as="targetPoint" />
          </mxGeometry>
        </mxCell>
        <mxCell id="ToAw_z9-mC3ADOfd5gEH-15" value="&lt;table style=&quot;margin: 15px auto; color: rgb(0, 0, 0); font-family: Arial; font-size: 14.4px; background-color: rgb(255, 255, 255);&quot; class=&quot;txt_tb&quot;&gt;&lt;tbody&gt;&lt;tr style=&quot;background-color: var(--contentBG);&quot;&gt;&lt;td&gt;&lt;p style=&quot;margin: 0.1em 0.2em;&quot;&gt;Erreur d&#39;accès à l&#39;horloge RTC&lt;/p&gt;&lt;/td&gt;&lt;/tr&gt;&lt;tr style=&quot;background-color: var(--accentLightBG);&quot;&gt;&lt;td&gt;&lt;/td&gt;&lt;/tr&gt;&lt;/tbody&gt;&lt;/table&gt;" style="text;html=1;align=center;verticalAlign=middle;whiteSpace=wrap;rounded=0;" parent="1" vertex="1">
          <mxGeometry x="922.5" y="130" width="118" height="30" as="geometry" />
        </mxCell>
        <mxCell id="ToAw_z9-mC3ADOfd5gEH-16" value="&lt;table style=&quot;margin: 15px auto; color: rgb(0, 0, 0); font-family: Arial; font-size: 14.4px; background-color: rgb(255, 255, 255);&quot; class=&quot;txt_tb&quot;&gt;&lt;tbody&gt;&lt;tr style=&quot;background-color: var(--accentLightBG);&quot;&gt;&lt;td&gt;&lt;p style=&quot;margin: 0.1em 0.2em;&quot;&gt;Erreur d’accès aux données du GPS&lt;/p&gt;&lt;/td&gt;&lt;/tr&gt;&lt;tr style=&quot;background-color: var(--contentBG);&quot;&gt;&lt;td&gt;&lt;/td&gt;&lt;/tr&gt;&lt;/tbody&gt;&lt;/table&gt;" style="text;html=1;align=center;verticalAlign=middle;whiteSpace=wrap;rounded=0;strokeColor=none;" parent="1" vertex="1">
          <mxGeometry x="912" y="200" width="134" height="30" as="geometry" />
        </mxCell>
        <mxCell id="ToAw_z9-mC3ADOfd5gEH-17" value="&lt;table style=&quot;margin: 15px auto; color: rgb(0, 0, 0); font-family: Arial; font-size: 14.4px; background-color: rgb(255, 255, 255);&quot; class=&quot;txt_tb&quot;&gt;&lt;tbody&gt;&lt;tr style=&quot;background-color: var(--contentBG);&quot;&gt;&lt;td&gt;&lt;p style=&quot;margin: 0.1em 0.2em;&quot;&gt;Erreur accès aux données d’un capteur&lt;/p&gt;&lt;/td&gt;&lt;/tr&gt;&lt;tr style=&quot;background-color: var(--accentLightBG);&quot;&gt;&lt;td&gt;&lt;/td&gt;&lt;/tr&gt;&lt;/tbody&gt;&lt;/table&gt;" style="text;html=1;align=center;verticalAlign=middle;whiteSpace=wrap;rounded=0;" parent="1" vertex="1">
          <mxGeometry x="893" y="258" width="156" height="30" as="geometry" />
        </mxCell>
        <mxCell id="ToAw_z9-mC3ADOfd5gEH-18" value="&lt;div style=&quot;&quot;&gt;&lt;span style=&quot;font-family: Arial; font-size: 14.4px; background-color: initial;&quot;&gt;Données reçues d’un capteur incohérentes&lt;/span&gt;&lt;/div&gt;" style="text;html=1;align=center;verticalAlign=middle;whiteSpace=wrap;rounded=0;" parent="1" vertex="1">
          <mxGeometry x="884.5" y="316" width="173" height="30" as="geometry" />
        </mxCell>
        <mxCell id="ToAw_z9-mC3ADOfd5gEH-19" value="&lt;span style=&quot;color: rgb(0, 0, 0); font-family: Arial; font-size: 14.4px; background-color: rgb(255, 255, 255);&quot;&gt;Carte SD pleine&lt;/span&gt;" style="text;html=1;align=center;verticalAlign=middle;whiteSpace=wrap;rounded=0;" parent="1" vertex="1">
          <mxGeometry x="919.5" y="378" width="119" height="30" as="geometry" />
        </mxCell>
        <mxCell id="ToAw_z9-mC3ADOfd5gEH-20" value="&lt;span style=&quot;color: rgb(0, 0, 0); font-family: Arial; font-size: 14.4px;&quot;&gt;Erreur d’accès ou d’écriture sur la carte SD&lt;/span&gt;" style="text;html=1;align=center;verticalAlign=middle;whiteSpace=wrap;rounded=0;" parent="1" vertex="1">
          <mxGeometry x="871" y="427" width="175" height="30" as="geometry" />
        </mxCell>
        <mxCell id="ToAw_z9-mC3ADOfd5gEH-21" value="&lt;span style=&quot;color: rgb(0, 0, 0); font-family: Arial; font-size: 14.4px; text-align: start; background-color: rgb(255, 255, 255);&quot;&gt;LED&amp;nbsp;intermittente rouge et bleue (fréquence 1 Hz, durée identique pour les 2 couleurs)&lt;/span&gt;" style="text;html=1;align=center;verticalAlign=middle;whiteSpace=wrap;rounded=0;" parent="1" vertex="1">
          <mxGeometry x="1108" y="139" width="450" height="30" as="geometry" />
        </mxCell>
        <mxCell id="ToAw_z9-mC3ADOfd5gEH-22" value="&lt;span style=&quot;color: rgb(0, 0, 0); font-family: Arial; font-size: 14.4px; text-align: start;&quot;&gt;LED intermittente rouge et jaune (fréquence 1Hz, durée identique pour les 2 couleurs)&lt;/span&gt;" style="text;html=1;align=center;verticalAlign=middle;whiteSpace=wrap;rounded=0;fillColor=none;shadow=0;strokeColor=none;" parent="1" vertex="1">
          <mxGeometry x="1138" y="200" width="380" height="36" as="geometry" />
        </mxCell>
        <mxCell id="ToAw_z9-mC3ADOfd5gEH-23" value="&lt;span style=&quot;color: rgb(0, 0, 0); font-family: Arial; font-size: 14.4px; text-align: start; background-color: rgb(255, 255, 255);&quot;&gt;LED intermittente rouge et verte (fréquence 1Hz, durée identique pour les 2 couleurs)&lt;/span&gt;" style="text;html=1;align=center;verticalAlign=middle;whiteSpace=wrap;rounded=0;" parent="1" vertex="1">
          <mxGeometry x="1133" y="265" width="400" height="30" as="geometry" />
        </mxCell>
        <mxCell id="ToAw_z9-mC3ADOfd5gEH-24" value="&lt;span style=&quot;color: rgb(0, 0, 0); font-family: Arial; font-size: 14.4px; text-align: start;&quot;&gt;LED intermittente rouge et verte (fréquence 1Hz, durée 2 fois plus longue pour le vert)&lt;/span&gt;" style="text;html=1;align=center;verticalAlign=middle;whiteSpace=wrap;rounded=0;" parent="1" vertex="1">
          <mxGeometry x="1108" y="323" width="440" height="30" as="geometry" />
        </mxCell>
        <mxCell id="ToAw_z9-mC3ADOfd5gEH-25" value="&lt;span style=&quot;color: rgb(0, 0, 0); font-family: Arial; font-size: 14.4px; text-align: start; background-color: rgb(255, 255, 255);&quot;&gt;LED intermittente rouge et blanche (fréquence 1Hz, durée identique pour les 2 couleurs)&lt;/span&gt;" style="text;html=1;align=center;verticalAlign=middle;whiteSpace=wrap;rounded=0;" parent="1" vertex="1">
          <mxGeometry x="1118" y="382" width="410" height="30" as="geometry" />
        </mxCell>
        <mxCell id="ToAw_z9-mC3ADOfd5gEH-26" value="&lt;span style=&quot;color: rgb(0, 0, 0); font-family: Arial; font-size: 14.4px; text-align: start;&quot;&gt;LED intermittente rouge et blanche (fréquence 1Hz, durée 2 fois plus longue pour le blanc)&lt;/span&gt;" style="text;html=1;align=center;verticalAlign=middle;whiteSpace=wrap;rounded=0;" parent="1" vertex="1">
          <mxGeometry x="1143" y="447" width="370" height="30" as="geometry" />
        </mxCell>
        <mxCell id="ToAw_z9-mC3ADOfd5gEH-27" value="MODE CONFIGURATION" style="text;align=center;fontStyle=1;verticalAlign=middle;spacingLeft=3;spacingRight=3;strokeColor=none;rotatable=0;points=[[0,0.5],[1,0.5]];portConstraint=eastwest;html=1;" parent="1" vertex="1">
          <mxGeometry x="64" y="-24" width="80" height="26" as="geometry" />
        </mxCell>
        <mxCell id="ToAw_z9-mC3ADOfd5gEH-28" value="ERREURS" style="text;align=center;fontStyle=1;verticalAlign=middle;spacingLeft=3;spacingRight=3;strokeColor=none;rotatable=0;points=[[0,0.5],[1,0.5]];portConstraint=eastwest;html=1;" parent="1" vertex="1">
          <mxGeometry x="904" y="-26" width="80" height="26" as="geometry" />
        </mxCell>
        <mxCell id="ToAw_z9-mC3ADOfd5gEH-31" value="" style="endArrow=classic;html=1;rounded=0;" parent="1" edge="1">
          <mxGeometry width="50" height="50" relative="1" as="geometry">
            <mxPoint x="1073" y="143" as="sourcePoint" />
            <mxPoint x="1073" y="153" as="targetPoint" />
            <Array as="points">
              <mxPoint x="1058" y="143" />
              <mxPoint x="1058" y="153" />
              <mxPoint x="1068" y="153" />
            </Array>
          </mxGeometry>
        </mxCell>
        <mxCell id="ToAw_z9-mC3ADOfd5gEH-33" value="" style="endArrow=classic;html=1;rounded=0;" parent="1" edge="1">
          <mxGeometry width="50" height="50" relative="1" as="geometry">
            <mxPoint x="1073" y="215" as="sourcePoint" />
            <mxPoint x="1073" y="225" as="targetPoint" />
            <Array as="points">
              <mxPoint x="1058" y="215" />
              <mxPoint x="1058" y="225" />
              <mxPoint x="1068" y="225" />
            </Array>
          </mxGeometry>
        </mxCell>
        <mxCell id="ToAw_z9-mC3ADOfd5gEH-34" value="" style="endArrow=classic;html=1;rounded=0;" parent="1" edge="1">
          <mxGeometry width="50" height="50" relative="1" as="geometry">
            <mxPoint x="1073" y="277" as="sourcePoint" />
            <mxPoint x="1073" y="287" as="targetPoint" />
            <Array as="points">
              <mxPoint x="1058" y="277" />
              <mxPoint x="1058" y="287" />
              <mxPoint x="1068" y="287" />
            </Array>
          </mxGeometry>
        </mxCell>
        <mxCell id="ToAw_z9-mC3ADOfd5gEH-35" value="" style="endArrow=classic;html=1;rounded=0;" parent="1" edge="1">
          <mxGeometry width="50" height="50" relative="1" as="geometry">
            <mxPoint x="1073" y="332" as="sourcePoint" />
            <mxPoint x="1073" y="342" as="targetPoint" />
            <Array as="points">
              <mxPoint x="1058" y="332" />
              <mxPoint x="1058" y="342" />
              <mxPoint x="1068" y="342" />
            </Array>
          </mxGeometry>
        </mxCell>
        <mxCell id="ToAw_z9-mC3ADOfd5gEH-36" value="" style="endArrow=classic;html=1;rounded=0;" parent="1" edge="1">
          <mxGeometry width="50" height="50" relative="1" as="geometry">
            <mxPoint x="1073" y="391" as="sourcePoint" />
            <mxPoint x="1073" y="401" as="targetPoint" />
            <Array as="points">
              <mxPoint x="1058" y="391" />
              <mxPoint x="1058" y="401" />
              <mxPoint x="1068" y="401" />
            </Array>
          </mxGeometry>
        </mxCell>
        <mxCell id="ToAw_z9-mC3ADOfd5gEH-37" value="" style="endArrow=classic;html=1;rounded=0;" parent="1" edge="1">
          <mxGeometry width="50" height="50" relative="1" as="geometry">
            <mxPoint x="1074" y="452" as="sourcePoint" />
            <mxPoint x="1074" y="462" as="targetPoint" />
            <Array as="points">
              <mxPoint x="1059" y="452" />
              <mxPoint x="1059" y="462" />
              <mxPoint x="1069" y="462" />
            </Array>
          </mxGeometry>
        </mxCell>
        <mxCell id="6IPq8yyJ47j7m7c0M8vb-1" value=":User" style="shape=umlLifeline;perimeter=lifelinePerimeter;whiteSpace=wrap;html=1;container=0;dropTarget=0;collapsible=0;recursiveResize=0;outlineConnect=0;portConstraint=eastwest;newEdgeStyle={&quot;edgeStyle&quot;:&quot;elbowEdgeStyle&quot;,&quot;elbow&quot;:&quot;vertical&quot;,&quot;curved&quot;:0,&quot;rounded&quot;:0};" parent="1" vertex="1">
          <mxGeometry x="42" y="-490" width="100" height="425" as="geometry" />
        </mxCell>
        <mxCell id="6IPq8yyJ47j7m7c0M8vb-2" value="" style="html=1;points=[];perimeter=orthogonalPerimeter;outlineConnect=0;targetShapes=umlLifeline;portConstraint=eastwest;newEdgeStyle={&quot;edgeStyle&quot;:&quot;elbowEdgeStyle&quot;,&quot;elbow&quot;:&quot;vertical&quot;,&quot;curved&quot;:0,&quot;rounded&quot;:0};" parent="6IPq8yyJ47j7m7c0M8vb-1" vertex="1">
          <mxGeometry x="45" y="70" width="10" height="70" as="geometry" />
        </mxCell>
        <mxCell id="6IPq8yyJ47j7m7c0M8vb-4" value=":Système Embarqué" style="shape=umlLifeline;perimeter=lifelinePerimeter;whiteSpace=wrap;html=1;container=0;dropTarget=0;collapsible=0;recursiveResize=0;outlineConnect=0;portConstraint=eastwest;newEdgeStyle={&quot;edgeStyle&quot;:&quot;elbowEdgeStyle&quot;,&quot;elbow&quot;:&quot;vertical&quot;,&quot;curved&quot;:0,&quot;rounded&quot;:0};" parent="1" vertex="1">
          <mxGeometry x="322" y="-490" width="100" height="425" as="geometry" />
        </mxCell>
        <mxCell id="6IPq8yyJ47j7m7c0M8vb-5" value="" style="html=1;points=[];perimeter=orthogonalPerimeter;outlineConnect=0;targetShapes=umlLifeline;portConstraint=eastwest;newEdgeStyle={&quot;edgeStyle&quot;:&quot;elbowEdgeStyle&quot;,&quot;elbow&quot;:&quot;vertical&quot;,&quot;curved&quot;:0,&quot;rounded&quot;:0};" parent="6IPq8yyJ47j7m7c0M8vb-4" vertex="1">
          <mxGeometry x="45" y="80" width="10" height="280" as="geometry" />
        </mxCell>
        <mxCell id="6IPq8yyJ47j7m7c0M8vb-7" value="on()" style="html=1;verticalAlign=bottom;endArrow=block;edgeStyle=elbowEdgeStyle;elbow=vertical;curved=0;rounded=0;" parent="1" edge="1">
          <mxGeometry relative="1" as="geometry">
            <mxPoint x="366.9999999999999" y="-364" as="sourcePoint" />
            <Array as="points">
              <mxPoint x="312" y="-364" />
            </Array>
            <mxPoint x="237" y="-364" as="targetPoint" />
          </mxGeometry>
        </mxCell>
        <mxCell id="6IPq8yyJ47j7m7c0M8vb-8" value=":CarteSD" style="shape=umlLifeline;perimeter=lifelinePerimeter;whiteSpace=wrap;html=1;container=0;dropTarget=0;collapsible=0;recursiveResize=0;outlineConnect=0;portConstraint=eastwest;newEdgeStyle={&quot;edgeStyle&quot;:&quot;elbowEdgeStyle&quot;,&quot;elbow&quot;:&quot;vertical&quot;,&quot;curved&quot;:0,&quot;rounded&quot;:0};" parent="1" vertex="1">
          <mxGeometry x="462" y="-491" width="100" height="425" as="geometry" />
        </mxCell>
        <mxCell id="6IPq8yyJ47j7m7c0M8vb-9" value="" style="html=1;points=[];perimeter=orthogonalPerimeter;outlineConnect=0;targetShapes=umlLifeline;portConstraint=eastwest;newEdgeStyle={&quot;edgeStyle&quot;:&quot;elbowEdgeStyle&quot;,&quot;elbow&quot;:&quot;vertical&quot;,&quot;curved&quot;:0,&quot;rounded&quot;:0};" parent="6IPq8yyJ47j7m7c0M8vb-8" vertex="1">
          <mxGeometry x="45" y="80" width="10" height="280" as="geometry" />
        </mxCell>
        <mxCell id="6IPq8yyJ47j7m7c0M8vb-10" value=":Capteurs" style="shape=umlLifeline;perimeter=lifelinePerimeter;whiteSpace=wrap;html=1;container=0;dropTarget=0;collapsible=0;recursiveResize=0;outlineConnect=0;portConstraint=eastwest;newEdgeStyle={&quot;edgeStyle&quot;:&quot;elbowEdgeStyle&quot;,&quot;elbow&quot;:&quot;vertical&quot;,&quot;curved&quot;:0,&quot;rounded&quot;:0};" parent="1" vertex="1">
          <mxGeometry x="602" y="-491" width="100" height="424" as="geometry" />
        </mxCell>
        <mxCell id="6IPq8yyJ47j7m7c0M8vb-11" value="" style="html=1;points=[];perimeter=orthogonalPerimeter;outlineConnect=0;targetShapes=umlLifeline;portConstraint=eastwest;newEdgeStyle={&quot;edgeStyle&quot;:&quot;elbowEdgeStyle&quot;,&quot;elbow&quot;:&quot;vertical&quot;,&quot;curved&quot;:0,&quot;rounded&quot;:0};" parent="6IPq8yyJ47j7m7c0M8vb-10" vertex="1">
          <mxGeometry x="45" y="80" width="10" height="280" as="geometry" />
        </mxCell>
        <mxCell id="6IPq8yyJ47j7m7c0M8vb-12" value=":LEDS" style="shape=umlLifeline;perimeter=lifelinePerimeter;whiteSpace=wrap;html=1;container=0;dropTarget=0;collapsible=0;recursiveResize=0;outlineConnect=0;portConstraint=eastwest;newEdgeStyle={&quot;edgeStyle&quot;:&quot;elbowEdgeStyle&quot;,&quot;elbow&quot;:&quot;vertical&quot;,&quot;curved&quot;:0,&quot;rounded&quot;:0};" parent="1" vertex="1">
          <mxGeometry x="182" y="-489" width="100" height="425" as="geometry" />
        </mxCell>
        <mxCell id="6IPq8yyJ47j7m7c0M8vb-13" value="" style="html=1;points=[];perimeter=orthogonalPerimeter;outlineConnect=0;targetShapes=umlLifeline;portConstraint=eastwest;newEdgeStyle={&quot;edgeStyle&quot;:&quot;elbowEdgeStyle&quot;,&quot;elbow&quot;:&quot;vertical&quot;,&quot;curved&quot;:0,&quot;rounded&quot;:0};" parent="6IPq8yyJ47j7m7c0M8vb-12" vertex="1">
          <mxGeometry x="45" y="60" width="10" height="300" as="geometry" />
        </mxCell>
        <mxCell id="6IPq8yyJ47j7m7c0M8vb-14" value="" style="endArrow=classic;html=1;rounded=0;" parent="6IPq8yyJ47j7m7c0M8vb-12" source="6IPq8yyJ47j7m7c0M8vb-13" target="6IPq8yyJ47j7m7c0M8vb-13" edge="1">
          <mxGeometry width="50" height="50" relative="1" as="geometry">
            <mxPoint x="40" y="140" as="sourcePoint" />
            <mxPoint x="10" y="110" as="targetPoint" />
            <Array as="points">
              <mxPoint x="30" y="140" />
              <mxPoint x="30" y="150" />
              <mxPoint x="40" y="150" />
            </Array>
          </mxGeometry>
        </mxCell>
        <mxCell id="6IPq8yyJ47j7m7c0M8vb-15" value="&lt;font style=&quot;font-size: 11px;&quot;&gt;LED verte continue&lt;/font&gt;" style="text;html=1;strokeColor=none;fillColor=none;align=center;verticalAlign=middle;whiteSpace=wrap;rounded=0;" parent="1" vertex="1">
          <mxGeometry x="152" y="-359" width="60" height="30" as="geometry" />
        </mxCell>
        <mxCell id="6IPq8yyJ47j7m7c0M8vb-16" value="" style="endArrow=classic;html=1;rounded=0;" parent="1" edge="1">
          <mxGeometry width="50" height="50" relative="1" as="geometry">
            <mxPoint x="97" y="-392" as="sourcePoint" />
            <mxPoint x="366.9999999999999" y="-392" as="targetPoint" />
            <Array as="points">
              <mxPoint x="242" y="-392" />
            </Array>
          </mxGeometry>
        </mxCell>
        <mxCell id="6IPq8yyJ47j7m7c0M8vb-17" value="&lt;font style=&quot;font-size: 11px;&quot;&gt;Bouton vert pressé&lt;/font&gt;" style="text;html=1;strokeColor=none;fillColor=#FFFFFF;align=center;verticalAlign=middle;whiteSpace=wrap;rounded=0;" parent="1" vertex="1">
          <mxGeometry x="112" y="-421" width="120" height="20" as="geometry" />
        </mxCell>
        <mxCell id="6IPq8yyJ47j7m7c0M8vb-18" value="" style="endArrow=classic;html=1;rounded=0;" parent="1" edge="1">
          <mxGeometry width="50" height="50" relative="1" as="geometry">
            <mxPoint x="377" y="-332" as="sourcePoint" />
            <mxPoint x="647" y="-332" as="targetPoint" />
            <Array as="points">
              <mxPoint x="522" y="-332" />
            </Array>
          </mxGeometry>
        </mxCell>
        <mxCell id="6IPq8yyJ47j7m7c0M8vb-19" value="&lt;font style=&quot;font-size: 11px;&quot;&gt;Désactivation de certains capteurs&lt;/font&gt;" style="text;html=1;strokeColor=none;fillColor=#FFFFFF;align=center;verticalAlign=middle;whiteSpace=wrap;rounded=0;" parent="1" vertex="1">
          <mxGeometry x="392" y="-357" width="201" height="20" as="geometry" />
        </mxCell>
        <mxCell id="6IPq8yyJ47j7m7c0M8vb-27" value="MODE ECONOMIE" style="text;align=center;fontStyle=1;verticalAlign=middle;spacingLeft=3;spacingRight=3;strokeColor=none;rotatable=0;points=[[0,0.5],[1,0.5]];portConstraint=eastwest;html=1;" parent="1" vertex="1">
          <mxGeometry x="66" y="-547" width="80" height="26" as="geometry" />
        </mxCell>
        <mxCell id="6IPq8yyJ47j7m7c0M8vb-28" value=":User" style="shape=umlLifeline;perimeter=lifelinePerimeter;whiteSpace=wrap;html=1;container=0;dropTarget=0;collapsible=0;recursiveResize=0;outlineConnect=0;portConstraint=eastwest;newEdgeStyle={&quot;edgeStyle&quot;:&quot;elbowEdgeStyle&quot;,&quot;elbow&quot;:&quot;vertical&quot;,&quot;curved&quot;:0,&quot;rounded&quot;:0};" parent="1" vertex="1">
          <mxGeometry x="908" y="-488" width="100" height="425" as="geometry" />
        </mxCell>
        <mxCell id="6IPq8yyJ47j7m7c0M8vb-29" value="" style="html=1;points=[];perimeter=orthogonalPerimeter;outlineConnect=0;targetShapes=umlLifeline;portConstraint=eastwest;newEdgeStyle={&quot;edgeStyle&quot;:&quot;elbowEdgeStyle&quot;,&quot;elbow&quot;:&quot;vertical&quot;,&quot;curved&quot;:0,&quot;rounded&quot;:0};" parent="6IPq8yyJ47j7m7c0M8vb-28" vertex="1">
          <mxGeometry x="45" y="70" width="10" height="290" as="geometry" />
        </mxCell>
        <mxCell id="6IPq8yyJ47j7m7c0M8vb-31" value=":Système Embarqué" style="shape=umlLifeline;perimeter=lifelinePerimeter;whiteSpace=wrap;html=1;container=0;dropTarget=0;collapsible=0;recursiveResize=0;outlineConnect=0;portConstraint=eastwest;newEdgeStyle={&quot;edgeStyle&quot;:&quot;elbowEdgeStyle&quot;,&quot;elbow&quot;:&quot;vertical&quot;,&quot;curved&quot;:0,&quot;rounded&quot;:0};" parent="1" vertex="1">
          <mxGeometry x="1188" y="-488" width="100" height="425" as="geometry" />
        </mxCell>
        <mxCell id="6IPq8yyJ47j7m7c0M8vb-32" value="" style="html=1;points=[];perimeter=orthogonalPerimeter;outlineConnect=0;targetShapes=umlLifeline;portConstraint=eastwest;newEdgeStyle={&quot;edgeStyle&quot;:&quot;elbowEdgeStyle&quot;,&quot;elbow&quot;:&quot;vertical&quot;,&quot;curved&quot;:0,&quot;rounded&quot;:0};" parent="6IPq8yyJ47j7m7c0M8vb-31" vertex="1">
          <mxGeometry x="45" y="80" width="10" height="280" as="geometry" />
        </mxCell>
        <mxCell id="6IPq8yyJ47j7m7c0M8vb-34" value="on()" style="html=1;verticalAlign=bottom;endArrow=block;edgeStyle=elbowEdgeStyle;elbow=vertical;curved=0;rounded=0;" parent="1" source="6IPq8yyJ47j7m7c0M8vb-32" target="6IPq8yyJ47j7m7c0M8vb-40" edge="1">
          <mxGeometry relative="1" as="geometry">
            <mxPoint x="1043" y="-368" as="sourcePoint" />
            <Array as="points">
              <mxPoint x="1178" y="-358" />
            </Array>
            <mxPoint x="1098" y="-368" as="targetPoint" />
          </mxGeometry>
        </mxCell>
        <mxCell id="6IPq8yyJ47j7m7c0M8vb-35" value=":CarteSD" style="shape=umlLifeline;perimeter=lifelinePerimeter;whiteSpace=wrap;html=1;container=0;dropTarget=0;collapsible=0;recursiveResize=0;outlineConnect=0;portConstraint=eastwest;newEdgeStyle={&quot;edgeStyle&quot;:&quot;elbowEdgeStyle&quot;,&quot;elbow&quot;:&quot;vertical&quot;,&quot;curved&quot;:0,&quot;rounded&quot;:0};" parent="1" vertex="1">
          <mxGeometry x="1328" y="-488" width="100" height="425" as="geometry" />
        </mxCell>
        <mxCell id="6IPq8yyJ47j7m7c0M8vb-36" value="" style="html=1;points=[];perimeter=orthogonalPerimeter;outlineConnect=0;targetShapes=umlLifeline;portConstraint=eastwest;newEdgeStyle={&quot;edgeStyle&quot;:&quot;elbowEdgeStyle&quot;,&quot;elbow&quot;:&quot;vertical&quot;,&quot;curved&quot;:0,&quot;rounded&quot;:0};" parent="6IPq8yyJ47j7m7c0M8vb-35" vertex="1">
          <mxGeometry x="45" y="80" width="10" height="280" as="geometry" />
        </mxCell>
        <mxCell id="6IPq8yyJ47j7m7c0M8vb-37" value=":Capteurs" style="shape=umlLifeline;perimeter=lifelinePerimeter;whiteSpace=wrap;html=1;container=0;dropTarget=0;collapsible=0;recursiveResize=0;outlineConnect=0;portConstraint=eastwest;newEdgeStyle={&quot;edgeStyle&quot;:&quot;elbowEdgeStyle&quot;,&quot;elbow&quot;:&quot;vertical&quot;,&quot;curved&quot;:0,&quot;rounded&quot;:0};" parent="1" vertex="1">
          <mxGeometry x="1468" y="-483" width="100" height="425" as="geometry" />
        </mxCell>
        <mxCell id="6IPq8yyJ47j7m7c0M8vb-38" value="" style="html=1;points=[];perimeter=orthogonalPerimeter;outlineConnect=0;targetShapes=umlLifeline;portConstraint=eastwest;newEdgeStyle={&quot;edgeStyle&quot;:&quot;elbowEdgeStyle&quot;,&quot;elbow&quot;:&quot;vertical&quot;,&quot;curved&quot;:0,&quot;rounded&quot;:0};" parent="6IPq8yyJ47j7m7c0M8vb-37" vertex="1">
          <mxGeometry x="45" y="75" width="10" height="280" as="geometry" />
        </mxCell>
        <mxCell id="6IPq8yyJ47j7m7c0M8vb-39" value=":LEDS" style="shape=umlLifeline;perimeter=lifelinePerimeter;whiteSpace=wrap;html=1;container=0;dropTarget=0;collapsible=0;recursiveResize=0;outlineConnect=0;portConstraint=eastwest;newEdgeStyle={&quot;edgeStyle&quot;:&quot;elbowEdgeStyle&quot;,&quot;elbow&quot;:&quot;vertical&quot;,&quot;curved&quot;:0,&quot;rounded&quot;:0};" parent="1" vertex="1">
          <mxGeometry x="1048" y="-488" width="100" height="425" as="geometry" />
        </mxCell>
        <mxCell id="6IPq8yyJ47j7m7c0M8vb-40" value="" style="html=1;points=[];perimeter=orthogonalPerimeter;outlineConnect=0;targetShapes=umlLifeline;portConstraint=eastwest;newEdgeStyle={&quot;edgeStyle&quot;:&quot;elbowEdgeStyle&quot;,&quot;elbow&quot;:&quot;vertical&quot;,&quot;curved&quot;:0,&quot;rounded&quot;:0};" parent="6IPq8yyJ47j7m7c0M8vb-39" vertex="1">
          <mxGeometry x="45" y="60" width="10" height="300" as="geometry" />
        </mxCell>
        <mxCell id="6IPq8yyJ47j7m7c0M8vb-41" value="" style="endArrow=classic;html=1;rounded=0;" parent="6IPq8yyJ47j7m7c0M8vb-39" source="6IPq8yyJ47j7m7c0M8vb-40" target="6IPq8yyJ47j7m7c0M8vb-40" edge="1">
          <mxGeometry width="50" height="50" relative="1" as="geometry">
            <mxPoint x="40" y="140" as="sourcePoint" />
            <mxPoint x="10" y="110" as="targetPoint" />
            <Array as="points">
              <mxPoint x="30" y="140" />
              <mxPoint x="30" y="150" />
              <mxPoint x="40" y="150" />
            </Array>
          </mxGeometry>
        </mxCell>
        <mxCell id="6IPq8yyJ47j7m7c0M8vb-42" value="&lt;font style=&quot;font-size: 11px;&quot;&gt;LED orange continue&lt;/font&gt;" style="text;html=1;strokeColor=none;fillColor=none;align=center;verticalAlign=middle;whiteSpace=wrap;rounded=0;" parent="1" vertex="1">
          <mxGeometry x="1011" y="-358" width="67" height="30" as="geometry" />
        </mxCell>
        <mxCell id="6IPq8yyJ47j7m7c0M8vb-43" value="" style="endArrow=classic;html=1;rounded=0;" parent="1" source="6IPq8yyJ47j7m7c0M8vb-29" target="6IPq8yyJ47j7m7c0M8vb-32" edge="1">
          <mxGeometry width="50" height="50" relative="1" as="geometry">
            <mxPoint x="1318" y="-308" as="sourcePoint" />
            <mxPoint x="1368" y="-358" as="targetPoint" />
            <Array as="points">
              <mxPoint x="1108" y="-388" />
            </Array>
          </mxGeometry>
        </mxCell>
        <mxCell id="6IPq8yyJ47j7m7c0M8vb-44" value="&lt;font style=&quot;font-size: 11px;&quot;&gt;Bouton rouge pressé&lt;/font&gt;" style="text;html=1;strokeColor=none;fillColor=#FFFFFF;align=center;verticalAlign=middle;whiteSpace=wrap;rounded=0;" parent="1" vertex="1">
          <mxGeometry x="978" y="-418" width="120" height="20" as="geometry" />
        </mxCell>
        <mxCell id="6IPq8yyJ47j7m7c0M8vb-48" value="" style="endArrow=classic;html=1;rounded=0;" parent="1" edge="1">
          <mxGeometry width="50" height="50" relative="1" as="geometry">
            <mxPoint x="963" y="-264" as="sourcePoint" />
            <mxPoint x="1233" y="-264" as="targetPoint" />
            <Array as="points">
              <mxPoint x="1108" y="-264" />
            </Array>
          </mxGeometry>
        </mxCell>
        <mxCell id="6IPq8yyJ47j7m7c0M8vb-49" value="&lt;font style=&quot;font-size: 11px;&quot;&gt;Données consultable sur le port série&lt;/font&gt;" style="text;html=1;strokeColor=none;fillColor=#FFFFFF;align=center;verticalAlign=middle;whiteSpace=wrap;rounded=0;" parent="1" vertex="1">
          <mxGeometry x="974" y="-299" width="226" height="30" as="geometry" />
        </mxCell>
        <mxCell id="6IPq8yyJ47j7m7c0M8vb-52" value="" style="endArrow=classic;html=1;rounded=0;" parent="1" target="6IPq8yyJ47j7m7c0M8vb-36" edge="1">
          <mxGeometry width="50" height="50" relative="1" as="geometry">
            <mxPoint x="1243" y="-333" as="sourcePoint" />
            <mxPoint x="1372" y="-332" as="targetPoint" />
            <Array as="points" />
          </mxGeometry>
        </mxCell>
        <mxCell id="6IPq8yyJ47j7m7c0M8vb-53" value="&lt;font style=&quot;font-size: 11px;&quot;&gt;Arrêt des enregistrements&lt;/font&gt;" style="text;html=1;strokeColor=none;fillColor=#FFFFFF;align=center;verticalAlign=middle;whiteSpace=wrap;rounded=0;" parent="1" vertex="1">
          <mxGeometry x="1248" y="-358" width="140" height="20" as="geometry" />
        </mxCell>
        <mxCell id="6IPq8yyJ47j7m7c0M8vb-54" value="MODE MAINTENANCE" style="text;align=center;fontStyle=1;verticalAlign=middle;spacingLeft=3;spacingRight=3;strokeColor=none;rotatable=0;points=[[0,0.5],[1,0.5]];portConstraint=eastwest;html=1;" parent="1" vertex="1">
          <mxGeometry x="932" y="-552" width="80" height="26" as="geometry" />
        </mxCell>
        <mxCell id="6IPq8yyJ47j7m7c0M8vb-61" value="loop" style="shape=umlFrame;whiteSpace=wrap;html=1;pointerEvents=0;" parent="1" vertex="1">
          <mxGeometry x="286" y="-305" width="428" height="200" as="geometry" />
        </mxCell>
        <mxCell id="6IPq8yyJ47j7m7c0M8vb-62" value="Relève les données" style="html=1;verticalAlign=bottom;endArrow=block;edgeStyle=elbowEdgeStyle;elbow=vertical;curved=0;rounded=0;" parent="1" source="6IPq8yyJ47j7m7c0M8vb-11" target="6IPq8yyJ47j7m7c0M8vb-5" edge="1">
          <mxGeometry x="-0.2222" y="-2" relative="1" as="geometry">
            <mxPoint x="649" y="-264" as="sourcePoint" />
            <Array as="points" />
            <mxPoint x="517" y="-264.03999999999996" as="targetPoint" />
            <mxPoint as="offset" />
          </mxGeometry>
        </mxCell>
        <mxCell id="C5fNlNHTqFcSnn3agM3e-1" value="" style="endArrow=classic;html=1;rounded=0;" parent="1" edge="1">
          <mxGeometry width="50" height="50" relative="1" as="geometry">
            <mxPoint x="377" y="-228" as="sourcePoint" />
            <mxPoint x="647" y="-228" as="targetPoint" />
            <Array as="points">
              <mxPoint x="522" y="-228" />
            </Array>
          </mxGeometry>
        </mxCell>
        <mxCell id="C5fNlNHTqFcSnn3agM3e-2" value="&lt;font style=&quot;font-size: 11px;&quot;&gt;Acquisition des données GPS = une mesure sur deux&lt;/font&gt;" style="text;html=1;strokeColor=none;fillColor=#FFFFFF;align=center;verticalAlign=middle;whiteSpace=wrap;rounded=0;" parent="1" vertex="1">
          <mxGeometry x="379.71999999999997" y="-252" width="264.56" height="20" as="geometry" />
        </mxCell>
        <mxCell id="C5fNlNHTqFcSnn3agM3e-3" value="" style="endArrow=classic;html=1;rounded=0;" parent="1" edge="1">
          <mxGeometry width="50" height="50" relative="1" as="geometry">
            <mxPoint x="377" y="-178" as="sourcePoint" />
            <mxPoint x="647" y="-178" as="targetPoint" />
            <Array as="points">
              <mxPoint x="522" y="-178" />
            </Array>
          </mxGeometry>
        </mxCell>
        <mxCell id="C5fNlNHTqFcSnn3agM3e-4" value="&lt;font style=&quot;font-size: 11px;&quot;&gt;Temps en 2 mesures multiplié par 2&lt;/font&gt;" style="text;html=1;strokeColor=none;fillColor=#FFFFFF;align=center;verticalAlign=middle;whiteSpace=wrap;rounded=0;" parent="1" vertex="1">
          <mxGeometry x="422.88" y="-207" width="182.25" height="20" as="geometry" />
        </mxCell>
        <mxCell id="C5fNlNHTqFcSnn3agM3e-5" value="" style="endArrow=classic;html=1;rounded=0;" parent="1" edge="1">
          <mxGeometry width="50" height="50" relative="1" as="geometry">
            <mxPoint x="1384" y="-265" as="sourcePoint" />
            <mxPoint x="1384" y="-245" as="targetPoint" />
            <Array as="points">
              <mxPoint x="1409" y="-265" />
              <mxPoint x="1409" y="-245" />
            </Array>
          </mxGeometry>
        </mxCell>
        <mxCell id="C5fNlNHTqFcSnn3agM3e-6" value="&lt;font style=&quot;font-size: 11px;&quot;&gt;Carte SD prête à être retiré&lt;/font&gt;" style="text;html=1;strokeColor=none;fillColor=#FFFFFF;align=center;verticalAlign=middle;whiteSpace=wrap;rounded=0;" parent="1" vertex="1">
          <mxGeometry x="1410" y="-264" width="82" height="20" as="geometry" />
        </mxCell>
        <mxCell id="C5fNlNHTqFcSnn3agM3e-7" value=":User" style="shape=umlLifeline;perimeter=lifelinePerimeter;whiteSpace=wrap;html=1;container=0;dropTarget=0;collapsible=0;recursiveResize=0;outlineConnect=0;portConstraint=eastwest;newEdgeStyle={&quot;edgeStyle&quot;:&quot;elbowEdgeStyle&quot;,&quot;elbow&quot;:&quot;vertical&quot;,&quot;curved&quot;:0,&quot;rounded&quot;:0};" parent="1" vertex="1">
          <mxGeometry x="40" y="-1325" width="100" height="725" as="geometry" />
        </mxCell>
        <mxCell id="C5fNlNHTqFcSnn3agM3e-8" value="" style="html=1;points=[];perimeter=orthogonalPerimeter;outlineConnect=0;targetShapes=umlLifeline;portConstraint=eastwest;newEdgeStyle={&quot;edgeStyle&quot;:&quot;elbowEdgeStyle&quot;,&quot;elbow&quot;:&quot;vertical&quot;,&quot;curved&quot;:0,&quot;rounded&quot;:0};" parent="C5fNlNHTqFcSnn3agM3e-7" vertex="1">
          <mxGeometry x="45" y="69" width="10" height="70" as="geometry" />
        </mxCell>
        <mxCell id="C5fNlNHTqFcSnn3agM3e-9" value=":Système Embarqué" style="shape=umlLifeline;perimeter=lifelinePerimeter;whiteSpace=wrap;html=1;container=0;dropTarget=0;collapsible=0;recursiveResize=0;outlineConnect=0;portConstraint=eastwest;newEdgeStyle={&quot;edgeStyle&quot;:&quot;elbowEdgeStyle&quot;,&quot;elbow&quot;:&quot;vertical&quot;,&quot;curved&quot;:0,&quot;rounded&quot;:0};" parent="1" vertex="1">
          <mxGeometry x="320" y="-1325" width="100" height="725" as="geometry" />
        </mxCell>
        <mxCell id="C5fNlNHTqFcSnn3agM3e-10" value="" style="html=1;points=[];perimeter=orthogonalPerimeter;outlineConnect=0;targetShapes=umlLifeline;portConstraint=eastwest;newEdgeStyle={&quot;edgeStyle&quot;:&quot;elbowEdgeStyle&quot;,&quot;elbow&quot;:&quot;vertical&quot;,&quot;curved&quot;:0,&quot;rounded&quot;:0};" parent="C5fNlNHTqFcSnn3agM3e-9" vertex="1">
          <mxGeometry x="45" y="79" width="10" height="580" as="geometry" />
        </mxCell>
        <mxCell id="C5fNlNHTqFcSnn3agM3e-11" value="on()" style="html=1;verticalAlign=bottom;endArrow=block;edgeStyle=elbowEdgeStyle;elbow=vertical;curved=0;rounded=0;" parent="1" edge="1">
          <mxGeometry relative="1" as="geometry">
            <mxPoint x="364.9999999999999" y="-1200" as="sourcePoint" />
            <Array as="points">
              <mxPoint x="310" y="-1200" />
            </Array>
            <mxPoint x="235" y="-1200" as="targetPoint" />
          </mxGeometry>
        </mxCell>
        <mxCell id="C5fNlNHTqFcSnn3agM3e-12" value=":CarteSD" style="shape=umlLifeline;perimeter=lifelinePerimeter;whiteSpace=wrap;html=1;container=0;dropTarget=0;collapsible=0;recursiveResize=0;outlineConnect=0;portConstraint=eastwest;newEdgeStyle={&quot;edgeStyle&quot;:&quot;elbowEdgeStyle&quot;,&quot;elbow&quot;:&quot;vertical&quot;,&quot;curved&quot;:0,&quot;rounded&quot;:0};" parent="1" vertex="1">
          <mxGeometry x="460" y="-1326" width="100" height="725" as="geometry" />
        </mxCell>
        <mxCell id="C5fNlNHTqFcSnn3agM3e-13" value="" style="html=1;points=[];perimeter=orthogonalPerimeter;outlineConnect=0;targetShapes=umlLifeline;portConstraint=eastwest;newEdgeStyle={&quot;edgeStyle&quot;:&quot;elbowEdgeStyle&quot;,&quot;elbow&quot;:&quot;vertical&quot;,&quot;curved&quot;:0,&quot;rounded&quot;:0};" parent="C5fNlNHTqFcSnn3agM3e-12" vertex="1">
          <mxGeometry x="45" y="79" width="10" height="580" as="geometry" />
        </mxCell>
        <mxCell id="C5fNlNHTqFcSnn3agM3e-14" value=":Capteurs" style="shape=umlLifeline;perimeter=lifelinePerimeter;whiteSpace=wrap;html=1;container=0;dropTarget=0;collapsible=0;recursiveResize=0;outlineConnect=0;portConstraint=eastwest;newEdgeStyle={&quot;edgeStyle&quot;:&quot;elbowEdgeStyle&quot;,&quot;elbow&quot;:&quot;vertical&quot;,&quot;curved&quot;:0,&quot;rounded&quot;:0};" parent="1" vertex="1">
          <mxGeometry x="600" y="-1326" width="100" height="725" as="geometry" />
        </mxCell>
        <mxCell id="C5fNlNHTqFcSnn3agM3e-15" value="" style="html=1;points=[];perimeter=orthogonalPerimeter;outlineConnect=0;targetShapes=umlLifeline;portConstraint=eastwest;newEdgeStyle={&quot;edgeStyle&quot;:&quot;elbowEdgeStyle&quot;,&quot;elbow&quot;:&quot;vertical&quot;,&quot;curved&quot;:0,&quot;rounded&quot;:0};" parent="C5fNlNHTqFcSnn3agM3e-14" vertex="1">
          <mxGeometry x="45" y="79" width="10" height="580" as="geometry" />
        </mxCell>
        <mxCell id="C5fNlNHTqFcSnn3agM3e-16" value=":LEDS" style="shape=umlLifeline;perimeter=lifelinePerimeter;whiteSpace=wrap;html=1;container=0;dropTarget=0;collapsible=0;recursiveResize=0;outlineConnect=0;portConstraint=eastwest;newEdgeStyle={&quot;edgeStyle&quot;:&quot;elbowEdgeStyle&quot;,&quot;elbow&quot;:&quot;vertical&quot;,&quot;curved&quot;:0,&quot;rounded&quot;:0};" parent="1" vertex="1">
          <mxGeometry x="180" y="-1324" width="100" height="725" as="geometry" />
        </mxCell>
        <mxCell id="C5fNlNHTqFcSnn3agM3e-17" value="" style="html=1;points=[];perimeter=orthogonalPerimeter;outlineConnect=0;targetShapes=umlLifeline;portConstraint=eastwest;newEdgeStyle={&quot;edgeStyle&quot;:&quot;elbowEdgeStyle&quot;,&quot;elbow&quot;:&quot;vertical&quot;,&quot;curved&quot;:0,&quot;rounded&quot;:0};" parent="C5fNlNHTqFcSnn3agM3e-16" vertex="1">
          <mxGeometry x="45" y="79" width="10" height="580" as="geometry" />
        </mxCell>
        <mxCell id="C5fNlNHTqFcSnn3agM3e-18" value="" style="endArrow=classic;html=1;rounded=0;" parent="C5fNlNHTqFcSnn3agM3e-16" source="C5fNlNHTqFcSnn3agM3e-17" target="C5fNlNHTqFcSnn3agM3e-17" edge="1">
          <mxGeometry width="50" height="50" relative="1" as="geometry">
            <mxPoint x="40" y="139" as="sourcePoint" />
            <mxPoint x="10" y="109" as="targetPoint" />
            <Array as="points">
              <mxPoint x="30" y="139" />
              <mxPoint x="30" y="149" />
              <mxPoint x="40" y="149" />
            </Array>
          </mxGeometry>
        </mxCell>
        <mxCell id="C5fNlNHTqFcSnn3agM3e-19" value="&lt;font style=&quot;font-size: 11px;&quot;&gt;LED verte continue&lt;/font&gt;" style="text;html=1;strokeColor=none;fillColor=none;align=center;verticalAlign=middle;whiteSpace=wrap;rounded=0;" parent="1" vertex="1">
          <mxGeometry x="150" y="-1195" width="60" height="30" as="geometry" />
        </mxCell>
        <mxCell id="C5fNlNHTqFcSnn3agM3e-20" value="" style="endArrow=classic;html=1;rounded=0;" parent="1" edge="1">
          <mxGeometry width="50" height="50" relative="1" as="geometry">
            <mxPoint x="95" y="-1228" as="sourcePoint" />
            <mxPoint x="364.9999999999999" y="-1228" as="targetPoint" />
            <Array as="points">
              <mxPoint x="240" y="-1228" />
            </Array>
          </mxGeometry>
        </mxCell>
        <mxCell id="C5fNlNHTqFcSnn3agM3e-22" value="" style="endArrow=classic;html=1;rounded=0;" parent="1" edge="1">
          <mxGeometry width="50" height="50" relative="1" as="geometry">
            <mxPoint x="375" y="-1168" as="sourcePoint" />
            <mxPoint x="645" y="-1168" as="targetPoint" />
            <Array as="points">
              <mxPoint x="520" y="-1168" />
            </Array>
          </mxGeometry>
        </mxCell>
        <mxCell id="C5fNlNHTqFcSnn3agM3e-23" value="&lt;font style=&quot;font-size: 11px;&quot;&gt;Initialisation des capteurs&lt;/font&gt;" style="text;html=1;strokeColor=none;fillColor=#FFFFFF;align=center;verticalAlign=middle;whiteSpace=wrap;rounded=0;" parent="1" vertex="1">
          <mxGeometry x="390" y="-1193" width="201" height="20" as="geometry" />
        </mxCell>
        <mxCell id="C5fNlNHTqFcSnn3agM3e-24" value="MODE STANDARD" style="text;align=center;fontStyle=1;verticalAlign=middle;spacingLeft=3;spacingRight=3;strokeColor=none;rotatable=0;points=[[0,0.5],[1,0.5]];portConstraint=eastwest;html=1;" parent="1" vertex="1">
          <mxGeometry x="64" y="-1383" width="85" height="26" as="geometry" />
        </mxCell>
        <mxCell id="C5fNlNHTqFcSnn3agM3e-25" value="loop" style="shape=umlFrame;whiteSpace=wrap;html=1;pointerEvents=0;" parent="1" vertex="1">
          <mxGeometry x="284" y="-1141" width="437" height="458" as="geometry" />
        </mxCell>
        <mxCell id="C5fNlNHTqFcSnn3agM3e-26" value="Relève les données" style="html=1;verticalAlign=bottom;endArrow=block;edgeStyle=elbowEdgeStyle;elbow=vertical;curved=0;rounded=0;" parent="1" edge="1">
          <mxGeometry x="-0.2222" y="-2" relative="1" as="geometry">
            <mxPoint x="645" y="-1114" as="sourcePoint" />
            <Array as="points" />
            <mxPoint x="375" y="-1114" as="targetPoint" />
            <mxPoint as="offset" />
          </mxGeometry>
        </mxCell>
        <mxCell id="C5fNlNHTqFcSnn3agM3e-32" value="&lt;span style=&quot;font-size: 11px;&quot;&gt;Branchement&lt;/span&gt;" style="text;html=1;strokeColor=none;fillColor=none;align=center;verticalAlign=middle;whiteSpace=wrap;rounded=0;" parent="1" vertex="1">
          <mxGeometry x="112" y="-1254" width="60" height="30" as="geometry" />
        </mxCell>
        <mxCell id="C5fNlNHTqFcSnn3agM3e-33" value="&lt;sub&gt;alt: &lt;font style=&quot;font-size: 9px;&quot;&gt;FICHIER DISPONIBLE&lt;/font&gt;&lt;/sub&gt;" style="shape=umlFrame;whiteSpace=wrap;html=1;pointerEvents=0;width=79;height=36;" parent="1" vertex="1">
          <mxGeometry x="291.5" y="-1084" width="421.5" height="104" as="geometry" />
        </mxCell>
        <mxCell id="C5fNlNHTqFcSnn3agM3e-34" value="" style="endArrow=classic;html=1;rounded=0;" parent="1" target="C5fNlNHTqFcSnn3agM3e-13" edge="1">
          <mxGeometry width="50" height="50" relative="1" as="geometry">
            <mxPoint x="376" y="-1047" as="sourcePoint" />
            <mxPoint x="646" y="-1047" as="targetPoint" />
            <Array as="points" />
          </mxGeometry>
        </mxCell>
        <mxCell id="C5fNlNHTqFcSnn3agM3e-35" value="&lt;div style=&quot;text-align: center;&quot;&gt;&lt;font style=&quot;background-color: initial; font-size: 11px;&quot;&gt;Enregistrement des données &lt;/font&gt;&lt;span style=&quot;background-color: initial;&quot;&gt;&lt;i&gt;&lt;font style=&quot;font-size: 8px;&quot;&gt;&quot;YearMonthDay_n.log&quot;&lt;/font&gt;&lt;/i&gt;&lt;/span&gt;&lt;/div&gt;" style="text;html=1;strokeColor=none;fillColor=#FFFFFF;align=center;verticalAlign=middle;whiteSpace=wrap;rounded=0;" parent="1" vertex="1">
          <mxGeometry x="390" y="-1074" width="240" height="22" as="geometry" />
        </mxCell>
        <mxCell id="C5fNlNHTqFcSnn3agM3e-36" value="" style="endArrow=classic;html=1;rounded=0;" parent="1" edge="1">
          <mxGeometry width="50" height="50" relative="1" as="geometry">
            <mxPoint x="504" y="-1030" as="sourcePoint" />
            <mxPoint x="504" y="-1020" as="targetPoint" />
            <Array as="points">
              <mxPoint x="489" y="-1030" />
              <mxPoint x="489" y="-1020" />
              <mxPoint x="499" y="-1020" />
            </Array>
          </mxGeometry>
        </mxCell>
        <mxCell id="C5fNlNHTqFcSnn3agM3e-37" value="&lt;font style=&quot;font-size: 11px;&quot;&gt;Attendre 10 minute&lt;/font&gt;" style="text;html=1;strokeColor=none;fillColor=none;align=center;verticalAlign=middle;whiteSpace=wrap;rounded=0;" parent="1" vertex="1">
          <mxGeometry x="422" y="-1038" width="60" height="30" as="geometry" />
        </mxCell>
        <mxCell id="C5fNlNHTqFcSnn3agM3e-38" value="&lt;sub&gt;alt: &lt;font style=&quot;font-size: 9px;&quot;&gt;FICHIER INDISPONIBLE&lt;/font&gt;&lt;/sub&gt;" style="shape=umlFrame;whiteSpace=wrap;html=1;pointerEvents=0;width=87;height=37;" parent="1" vertex="1">
          <mxGeometry x="292.5" y="-970" width="421.5" height="134" as="geometry" />
        </mxCell>
        <mxCell id="C5fNlNHTqFcSnn3agM3e-39" value="" style="endArrow=classic;html=1;rounded=0;dashed=1;" parent="1" target="C5fNlNHTqFcSnn3agM3e-13" edge="1">
          <mxGeometry width="50" height="50" relative="1" as="geometry">
            <mxPoint x="374.28" y="-934" as="sourcePoint" />
            <mxPoint x="644.28" y="-934" as="targetPoint" />
            <Array as="points">
              <mxPoint x="452" y="-934" />
            </Array>
          </mxGeometry>
        </mxCell>
        <mxCell id="C5fNlNHTqFcSnn3agM3e-40" value="&lt;div style=&quot;text-align: center;&quot;&gt;&lt;font style=&quot;background-color: initial; font-size: 11px;&quot;&gt;Créer un nouveau fichier&amp;nbsp;&lt;/font&gt;&lt;span style=&quot;background-color: initial;&quot;&gt;&lt;i&gt;&lt;font style=&quot;font-size: 8px;&quot;&gt;&quot;YearMonthDay_n+1.log&quot;&lt;/font&gt;&lt;/i&gt;&lt;/span&gt;&lt;/div&gt;" style="text;html=1;strokeColor=none;fillColor=#FFFFFF;align=center;verticalAlign=middle;whiteSpace=wrap;rounded=0;" parent="1" vertex="1">
          <mxGeometry x="388.28" y="-961" width="240" height="22" as="geometry" />
        </mxCell>
        <mxCell id="C5fNlNHTqFcSnn3agM3e-41" value="" style="endArrow=classic;html=1;rounded=0;dashed=1;" parent="1" target="C5fNlNHTqFcSnn3agM3e-13" edge="1">
          <mxGeometry width="50" height="50" relative="1" as="geometry">
            <mxPoint x="375" y="-899" as="sourcePoint" />
            <mxPoint x="645" y="-899" as="targetPoint" />
            <Array as="points" />
          </mxGeometry>
        </mxCell>
        <mxCell id="C5fNlNHTqFcSnn3agM3e-42" value="&lt;div style=&quot;text-align: center;&quot;&gt;&lt;font style=&quot;background-color: initial; font-size: 11px;&quot;&gt;Enregistrement des données &lt;/font&gt;&lt;span style=&quot;background-color: initial;&quot;&gt;&lt;i&gt;&lt;font style=&quot;font-size: 8px;&quot;&gt;&quot;YearMonthDay_n.log&quot;&lt;/font&gt;&lt;/i&gt;&lt;/span&gt;&lt;/div&gt;" style="text;html=1;strokeColor=none;fillColor=#FFFFFF;align=center;verticalAlign=middle;whiteSpace=wrap;rounded=0;" parent="1" vertex="1">
          <mxGeometry x="389" y="-926" width="240" height="22" as="geometry" />
        </mxCell>
        <mxCell id="C5fNlNHTqFcSnn3agM3e-43" value="" style="endArrow=classic;html=1;rounded=0;dashed=1;" parent="1" edge="1">
          <mxGeometry width="50" height="50" relative="1" as="geometry">
            <mxPoint x="504" y="-884" as="sourcePoint" />
            <mxPoint x="504" y="-874" as="targetPoint" />
            <Array as="points">
              <mxPoint x="489" y="-884" />
              <mxPoint x="489" y="-874" />
              <mxPoint x="499" y="-874" />
            </Array>
          </mxGeometry>
        </mxCell>
        <mxCell id="C5fNlNHTqFcSnn3agM3e-44" value="&lt;font style=&quot;font-size: 11px;&quot;&gt;Attendre 10 minute&lt;/font&gt;" style="text;html=1;strokeColor=none;fillColor=none;align=center;verticalAlign=middle;whiteSpace=wrap;rounded=0;" parent="1" vertex="1">
          <mxGeometry x="422" y="-892" width="60" height="30" as="geometry" />
        </mxCell>
        <mxCell id="C5fNlNHTqFcSnn3agM3e-45" value="&lt;sub&gt;alt:&amp;nbsp;&lt;/sub&gt;&lt;div&gt;&lt;sub&gt;&lt;font style=&quot;font-size: 9px;&quot;&gt;DONNEES = NA&lt;/font&gt;&lt;/sub&gt;&lt;/div&gt;" style="shape=umlFrame;whiteSpace=wrap;html=1;pointerEvents=0;width=91;height=41;" parent="1" vertex="1">
          <mxGeometry x="292.5" y="-826" width="421.5" height="134" as="geometry" />
        </mxCell>
        <mxCell id="C5fNlNHTqFcSnn3agM3e-46" value="" style="endArrow=none;html=1;rounded=0;dashed=1;startArrow=classic;startFill=1;endFill=0;" parent="1" edge="1">
          <mxGeometry width="50" height="50" relative="1" as="geometry">
            <mxPoint x="375" y="-788" as="sourcePoint" />
            <mxPoint x="645" y="-788" as="targetPoint" />
            <Array as="points">
              <mxPoint x="520" y="-788" />
            </Array>
          </mxGeometry>
        </mxCell>
        <mxCell id="C5fNlNHTqFcSnn3agM3e-47" value="&lt;div style=&quot;text-align: center;&quot;&gt;&lt;span style=&quot;font-size: 11px;&quot;&gt;TIMEOUT (30s) = TRUE&lt;/span&gt;&lt;/div&gt;" style="text;html=1;strokeColor=none;fillColor=#FFFFFF;align=center;verticalAlign=middle;whiteSpace=wrap;rounded=0;" parent="1" vertex="1">
          <mxGeometry x="389" y="-815" width="240" height="22" as="geometry" />
        </mxCell>
        <mxCell id="C5fNlNHTqFcSnn3agM3e-48" value="" style="endArrow=classic;html=1;rounded=0;dashed=1;" parent="1" edge="1">
          <mxGeometry width="50" height="50" relative="1" as="geometry">
            <mxPoint x="376" y="-750" as="sourcePoint" />
            <mxPoint x="506" y="-750" as="targetPoint" />
            <Array as="points" />
          </mxGeometry>
        </mxCell>
        <mxCell id="C5fNlNHTqFcSnn3agM3e-49" value="&lt;div style=&quot;text-align: center;&quot;&gt;&lt;font style=&quot;background-color: initial;&quot;&gt;&lt;span style=&quot;font-size: 11px;&quot;&gt;Enregistrement des données &lt;/span&gt;&lt;i style=&quot;&quot;&gt;&lt;font style=&quot;font-size: 9px;&quot;&gt;&quot;NA&quot;&lt;/font&gt;&lt;/i&gt;&lt;span style=&quot;font-size: 11px;&quot;&gt; dans&amp;nbsp;&lt;/span&gt;&lt;/font&gt;&lt;span style=&quot;background-color: initial;&quot;&gt;&lt;i&gt;&lt;font style=&quot;font-size: 8px;&quot;&gt;&quot;YearMonthDay_n.log&quot;&lt;/font&gt;&lt;/i&gt;&lt;/span&gt;&lt;/div&gt;" style="text;html=1;strokeColor=none;fillColor=#FFFFFF;align=center;verticalAlign=middle;whiteSpace=wrap;rounded=0;" parent="1" vertex="1">
          <mxGeometry x="369.5" y="-776" width="279" height="22" as="geometry" />
        </mxCell>
        <mxCell id="C5fNlNHTqFcSnn3agM3e-50" value="" style="endArrow=classic;html=1;rounded=0;dashed=1;" parent="1" edge="1">
          <mxGeometry width="50" height="50" relative="1" as="geometry">
            <mxPoint x="504" y="-732" as="sourcePoint" />
            <mxPoint x="504" y="-722" as="targetPoint" />
            <Array as="points">
              <mxPoint x="489" y="-732" />
              <mxPoint x="489" y="-722" />
              <mxPoint x="499" y="-722" />
            </Array>
          </mxGeometry>
        </mxCell>
        <mxCell id="C5fNlNHTqFcSnn3agM3e-51" value="&lt;font style=&quot;font-size: 11px;&quot;&gt;Attendre 10 minute&lt;/font&gt;" style="text;html=1;strokeColor=none;fillColor=none;align=center;verticalAlign=middle;whiteSpace=wrap;rounded=0;" parent="1" vertex="1">
          <mxGeometry x="422" y="-740" width="60" height="30" as="geometry" />
        </mxCell>
      </root>
    </mxGraphModel>
  </diagram>
</mxfile>
